<svg version="1.1" xmlns="http://www.w3.org/2000/svg" xmlns:xlink="http://www.w3.org/1999/xlink" width="90.86661" height="191.72284" viewBox="0,0,90.86661,191.72284"><g transform="translate(-201.91649,-86.00114)"><g data-paper-data="{&quot;isPaintingLayer&quot;:true}" fill-rule="nonzero" stroke="none" stroke-width="0.95" stroke-linecap="butt" stroke-linejoin="miter" stroke-miterlimit="10" stroke-dasharray="" stroke-dashoffset="0" style="mix-blend-mode: normal"><path d="M212.6344,264.6323c0.4047,-0.7629 1.1153,-0.875 1.9304,-0.6812c0.8835,0.21 1.7176,0.5757 2.5261,1.0099c1.0792,0.5766 2.3465,0.76 3.4561,1.2701c1.1675,0.5396 2.355,0.7534 3.6014,1.0374c1.2664,0.286 2.642,0.2755 3.9463,0.2803c0.399,0.0009 1.4051,-0.3354 1.4716,0.2413c0.0503,0.436 -0.1786,0.7305 -0.4332,1.0307c-0.3506,0.4123 -0.7372,0.7363 -1.2616,0.9158c-0.8123,0.2784 -1.6587,0.4399 -2.4947,0.647c-0.8664,0.2147 -1.8041,0.3724 -2.6277,0.7134c-0.6033,0.2508 -1.1818,0.5757 -1.7756,0.8455c-1.1789,0.533 -2.336,1.3158 -3.6261,1.5789c-1.6416,0.3344 -3.3364,0.3629 -4.9809,0.0162c-1.4012,-0.2936 -2.9298,-0.209 -4.2655,-0.7838c-0.7923,-0.3382 -1.6805,-0.4911 -2.2838,-1.139c-0.2812,-0.2974 -0.3372,-0.5206 -0.4398,-0.9035c-0.0608,-0.2213 -0.1938,-0.38 -0.1777,-0.6194c0.019,-0.2508 0.1055,-0.4398 0.2366,-0.6536c0.6061,-0.9728 1.6872,-1.3556 2.7037,-1.8202c0.5168,-0.2375 1.1067,-0.4598 1.5589,-0.8075c0.1349,-0.1026 0.247,-0.2413 0.3705,-0.3562c0.2784,-0.2613 0.6137,-0.4579 0.9377,-0.6622c0.455,-0.2916 0.9405,-0.6621 1.3376,-1.025c0.1862,-0.171 0.3524,-0.3686 0.532,-0.5463c0.2631,-0.2612 0.6042,-0.2935 0.9006,-0.418" fill="#4e3a78"/><path d="M252.9353,263.0724c0.2052,0.1767 0.3515,0.1909 0.5995,0.303c0.3676,0.1672 0.6954,0.551 1.0735,0.6954c0.7514,0.2869 1.4953,0.6042 2.2534,0.893c1.7128,0.6527 4.0137,0.7933 5.4359,1.4051c0.4341,0.1862 1.4421,0.2565 -0.5244,1.8116c-0.4598,0.3648 -0.6859,0.6213 -1.1771,0.9709c-0.5861,0.4199 -1.3328,0.5938 -1.9959,0.8797c-0.5672,0.2442 -1.4725,0.228 -2.0539,0.4199c-0.7999,0.2651 -1.6616,0.153 -2.4976,0.1929c-0.9082,0.0427 -1.995,0.0494 -2.9089,-0.1055c-0.7001,-0.1206 -1.5627,-0.2565 -2.2762,-0.3344c-0.6726,-0.0731 -0.7486,-0.1909 -1.4269,-0.2916c-0.3306,-0.0494 -0.7733,-0.2413 -1.0982,-0.3401c-0.3971,-0.1226 -0.8768,-0.1796 -1.235,-0.3563c-0.2964,-0.1453 -0.7372,-0.2128 -1.0431,-0.3011c-0.6659,-0.1948 -1.8154,-0.6137 -2.7407,-0.7695c-1.6017,-0.266 -2.3997,0.1691 -3.6813,0.55c-2.4557,0.7315 -3.1996,-0.2527 -3.5425,-0.3021c0,-0.1909 0.322,-1.7062 0.4655,-1.8401c0.2223,-0.2081 1.938,-0.5339 2.1717,-0.7211c0.398,-0.3249 1.4326,-0.475 1.9532,-0.5662c0.4427,-0.0741 1.482,0.0703 1.9247,0.1112c0.5225,0.0475 1.2834,0.1463 1.8002,0.2346c1.3661,0.2328 3.6813,0.4551 5.0312,0.7002c1.2208,0.2213 1.2369,0.0627 2.8367,-0.342c0.5235,-0.134 0.7562,-0.9728 1.0108,-1.4545c0.1273,-0.2384 0.4275,-0.6555 0.5957,-0.8873c0.1197,-0.1672 0.4465,-0.0028 0.4389,-0.1947c-0.0095,-0.1938 0.2194,-0.4019 0.323,-0.2926" fill="#4e3a78"/><path d="M229.818,268.323c-0.0389,0.2888 0.1311,0.5995 0.229,0.8598c0.1244,0.3382 0.0389,0.5719 0.0057,0.9129c-0.0143,0.153 0.0247,0.3173 -0.0048,0.4684c-0.0351,0.1786 -0.1586,0.3296 -0.2299,0.4949c-0.1187,0.2774 -0.1966,0.5092 -0.4161,0.7315c-0.2983,0.3031 -0.9034,0.4104 -1.3347,0.5292c-0.9747,0.266 -1.7851,0.6374 -2.6809,1.063c-1.2673,0.6033 -2.2354,1.5457 -3.3915,2.3009c-0.2214,0.1482 -0.3867,0.3458 -0.6175,0.4845c-0.2233,0.134 -0.4826,0.2261 -0.7097,0.3515c-0.5861,0.3192 -1.2388,0.495 -1.88,0.6926c-0.6935,0.2137 -1.331,0.3724 -2.0606,0.398c-1.1096,0.0399 -2.223,-0.1083 -3.3326,-0.1026c-1.9399,0.0067 -3.8703,-0.2764 -5.7627,-0.5738c-0.531,-0.0836 -1.0687,-0.1862 -1.5988,-0.3125c-0.5007,-0.1197 -0.7553,-0.3031 -1.0897,-0.6783c-0.6859,-0.7695 -1.0089,-1.5846 -0.9443,-2.6534c0.0276,-0.4788 0.3126,-0.8778 0.4503,-1.311c0.1216,-0.3828 0.3164,-1.0782 0.665,-1.2996c0.0988,0.1539 0.0637,0.323 0.1957,0.4845c0.1121,0.1397 0.2584,0.2185 0.3525,0.3734c0.1111,0.19 0.0969,0.2755 0.2945,0.4123c0.1472,0.1026 0.3078,0.1719 0.4674,0.2489c0.7286,0.3467 1.1409,0.6213 1.9712,0.778c0.6109,0.1159 1.4915,0.1739 2.0777,0.3306c0.7239,0.1929 1.4164,0.3097 2.1584,0.399c1.7052,0.2014 3.4627,0.2052 5.1129,-0.322c1.3119,-0.419 2.7312,-0.5624 3.8589,-1.4022c0.6308,-0.4703 1.2502,-0.8465 2.0349,-1.0232c0.4189,-0.095 0.8303,-0.1966 1.2464,-0.3002c0.2764,-0.0693 1.1096,-0.1045 1.216,-0.3268c0.7932,-0.2299 1.7366,-0.4427 2.4168,-0.931c0.2166,-0.152 0.3809,-0.3885 0.5738,-0.5681c0.2194,-0.2033 0.455,-0.3363 0.7039,-0.4759" fill="#bfb3d8"/><path d="M263.0025,266.7745c0.4522,-0.0741 0.0095,0.8873 -0.02,1.0887c-0.0665,0.4494 -0.0589,0.9111 -0.0589,1.3728c0,0.5386 -0.0978,0.9405 -0.2859,1.4459c-0.1682,0.4531 -0.532,0.722 -0.7505,1.14c-0.2356,0.4512 -0.6118,0.7381 -1.1144,0.93c-0.7552,0.2888 -1.5551,0.6527 -2.3607,0.7629c-1.8269,0.2555 -3.9416,0.1748 -5.6848,-0.4551c-1.0213,-0.3686 -2.1898,-0.8056 -3.2642,-0.9699c-0.855,-0.133 -2.1603,-0.2489 -3.0144,-0.172c-1.234,0.1121 -2.1099,0.3297 -3.3554,0.3297c-1.2502,0 -2.5175,0.1301 -3.7639,0.228c-1.0725,0.0836 -2.1061,-0.0475 -3.1587,-0.2138c-0.4161,-0.0655 -0.8113,-0.151 -1.2227,-0.2394c-0.1947,-0.0408 -0.8151,-0.0399 -0.9794,-0.1852c-0.1701,-0.1463 -0.0561,-0.437 -0.0836,-0.6365c-0.0466,-0.3145 -0.0589,-0.5672 -0.0561,-0.8968c0.0048,-0.4978 0.0409,-1.065 0.2594,-1.5124c0.2023,-0.4161 0.8911,0.0142 1.2464,0.0997c0.6583,0.1568 1.3965,-0.1387 2.0254,-0.3049c1.2055,-0.3192 2.6362,-0.7486 3.875,-0.438c1.0251,0.2575 1.8601,0.5662 2.9061,0.8123c0.5187,0.1216 1.2141,0.342 1.7128,0.513c0.4361,0.1463 1.0887,0.0465 1.4516,0.3363c0.1197,-0.0485 0.5349,0.1206 0.7239,0.1539c0.2252,0.0389 0.4171,0.1776 0.6441,0.2052c1.2255,0.1472 2.4102,0.3876 3.6347,0.5035c1.0868,0.1007 2.28,-0.0019 3.5036,-0.0789c0.8873,-0.057 1.7841,-0.2251 2.6296,-0.4702c0.6745,-0.1967 1.3614,-0.609 1.9846,-0.9367c0.4921,-0.2565 1.0127,-0.59 1.4421,-0.9481c0.2137,-0.1777 0.3524,-0.4038 0.531,-0.6156c0.1463,-0.1786 0.5577,-0.7819 0.7163,-0.798" fill="#bfb3d8"/><path d="M249.3595,178.8416c0.1302,1.2207 0.1577,2.3712 0.5406,3.5938c0.3961,1.2569 0.817,2.5242 0.9576,3.8342c0.2175,2.0197 0.4617,4.333 0.3572,6.3764c-0.1197,2.3228 -0.1786,4.6303 -0.4323,6.935c-0.2603,2.3323 -1.0032,4.5933 -1.4402,6.9179c-0.5073,2.6999 -1.0887,5.3476 -1.5181,8.0532c-0.1909,1.2008 -0.3163,2.412 -0.4493,3.6195c-0.1216,1.1134 -0.1587,2.0985 -0.6185,3.1597c-0.6697,1.5456 -2.0605,2.2268 -3.4067,3.0818c-1.0317,0.6574 -1.9855,1.5418 -2.9773,2.2762c-1.5779,1.1685 -3.3288,1.8781 -5.2003,2.4738c-2.1175,0.6764 -4.3529,1.0013 -6.5113,1.5171c-2.2315,0.5339 -4.4346,0.9073 -6.7146,1.1619c-2.4263,0.2688 -4.8412,0.6868 -7.2884,0.6821c-0.873,-0.001 -1.6796,-0.2812 -2.4415,-0.3487c-0.0418,-0.9918 -0.0066,-2.0634 -0.0076,-3.0191c0.0428,-0.4816 -0.1111,-0.9338 -0.1833,-1.3993c-0.1454,-0.9272 -0.6926,-1.4773 -0.6926,-2.566c0,-1.0421 0.4437,-2.2144 0.4437,-3.2917c0,-0.4798 0,-1.0574 0,-1.5827c0,0.0076 0,0.0142 0,0.0199c0,-1.5057 0.6108,-3.0685 0.9642,-4.5324c0.2442,-1.0089 -0.056,-2.2525 0.2119,-3.2794c0.247,-0.9491 0.7077,-1.768 0.8654,-2.7246c0.171,-1.0469 0.666,-3.5264 0.666,-4.5885c0,-2.3541 0.3952,-2.1708 0.987,-4.6389c0.2765,-1.1523 0.3848,-2.3664 0.5016,-3.5264c0.1045,-1.0564 0.3202,-2.0881 0.4608,-3.1578c0.0665,-0.512 0.2565,-1.0545 0.4351,-1.5475c0.1985,-0.5501 0.2356,-1.0042 0.3705,-1.5476c0.1244,-0.5073 0.3572,-0.8759 0.4056,-1.425c0.0494,-0.5462 0.1473,-0.9709 0.3078,-1.4848c0.3648,-1.16 0.6726,-2.2933 0.9424,-3.4685c0.267,-1.1656 0.2014,-2.6714 0.6831,-3.7572c0.5586,-1.2559 0.4674,-2.6923 1.254,-3.915c0.6146,-0.9585 1.1856,-1.159 2.089,-0.5415c0.323,-0.0969 1.6644,0.7325 2.0416,0.97c0.6194,0.3857 1.482,0.7704 2.1774,0.9956c1.6805,0.5424 3.9282,1.6254 5.6306,1.8591c0.0038,0.0057 -0.0988,-0.0617 -0.1083,-0.0674c0.4342,0.0627 2.8567,0.5576 3.3212,0.5576c2.2895,0 3.1132,0.0466 5.4559,-0.2574c1.5827,-0.2052 3.0837,-0.4256 4.6189,-0.7752c0.6089,-0.1378 2.6581,-1.159 3.1103,-0.6954M210.7572,229.5573c0.0599,-0.2755 0.5197,-1.4886 0.2613,-1.5637c0.3496,-0.4227 0.0722,-0.702 0.1387,-1.2701c0.1786,-1.54 5.0483,-0.1596 6.7706,-0.7439c2.4216,-0.8236 4.979,-1.1058 7.4936,-1.5152c2.6002,-0.419 5.1918,-0.9244 7.7435,-1.5875c2.9203,-0.76 5.9023,-1.6359 8.5272,-3.1606c1.6824,-0.9766 3.0761,-2.2924 4.6141,-3.4628c0.3211,-0.2441 1.1676,-1.2521 1.6521,-0.9253c0.2935,0.1976 -0.0466,2.0891 -0.0523,2.2762c-0.0788,2.223 -0.4892,4.2855 -0.1786,6.48c0.3116,2.203 -0.1054,4.4403 0.285,6.6471c0.0922,0.5225 -0.2403,1.2369 0.0466,1.6701c0.3724,0.5624 0.398,0.8845 0.3638,1.577c-0.0218,0.4598 0.3734,0.6137 0.3981,1.0251c0.0332,0.532 0.5339,0.8027 0.9433,1.0972c0.5691,0.4104 0.6289,0.4893 0.6631,1.1923c0.0266,0.5671 -0.4436,1.2948 -0.5823,1.8715c-0.1919,0.7875 -0.7087,1.5665 -0.7543,2.3892c-0.0314,0.5434 0.0152,1.083 0.1463,1.6036c0.2793,1.122 1.2084,2.5413 1.7622,3.5283c0.6935,1.2341 0.5187,2.0843 0.4275,3.4248c-0.0266,0.3847 -0.1567,0.7913 -0.1871,1.1761c-0.019,0.2375 0.037,0.6393 0.1178,0.7552c0.361,0.5197 0.0104,0.1596 0.4588,0.6147c0.7116,0.7201 1.5637,1.9304 1.8364,2.2762c0.6365,0.8094 0.7372,1.4763 1.425,1.7945c0.684,1.4497 0.7894,0.4066 1.0744,1.7119c0.1197,0.551 -0.095,0.4665 -0.3515,0.9548c-0.2422,0.4569 -0.1396,1.3233 -0.456,1.7337c-0.2546,0.3287 -1.0393,2.1708 -1.1675,2.5926c-0.1558,0.5168 -0.8949,-1.2616 -1.7803,-0.4465c-0.3715,0.342 -0.248,0.5538 -0.5786,0.9357c-0.36,0.4161 -0.5082,0.9557 -0.95,1.2702c-0.3904,0.2802 -0.4721,0.4018 -0.9538,0.5595c-0.4721,0.153 -1.539,0.4484 -1.9959,0.4038c-1.2778,-0.1216 -1.8012,-0.3458 -3.0742,-0.4047c-1.7015,-0.0817 -3.7117,-0.894 -5.4568,-0.8113c-0.8531,0.0389 -1.2141,0.0351 -1.8772,0.3182c-0.5396,0.2318 -2.2268,0.5472 -2.6648,0.9367c-0.3809,0.3382 -0.9291,-0.1178 -1.3746,0.1387c-0.2157,0.1235 -0.6147,-0.5225 -0.7885,-0.3429c-0.0608,0.0598 -0.5453,0.5871 -0.5339,0.5814c-0.5624,0.3087 -0.6954,0.3895 -1.3034,0.5728c-0.4551,0.1378 -0.2917,0.0475 -0.7467,0.02c-0.4969,-0.0285 -0.7201,0.1786 -1.2331,0.0978c-1.1733,-0.1824 -2.49,0.1501 -3.6613,-0.1235c-1.654,-0.3847 -3.1341,-0.1444 -4.2807,-0.9044c-0.6014,-0.398 -2.1765,-0.7799 -2.8367,-1.0488c-0.8522,-0.3458 -2.0454,-0.7904 -2.8966,-1.1343c-1.2226,-0.494 -1.8734,-0.5529 -2.507,0.1387c-0.6536,0.7135 -0.5672,1.0194 -1.6977,1.6397c-0.817,0.4503 -0.7951,1.1248 -1.6292,1.1609c-0.6033,0.6204 -0.6251,-0.4816 -1.3965,-1.4734c-0.951,-1.2274 -1.3319,-3.6955 0,-4.6826c0.0731,-0.8417 -1.3994,-2.2885 -0.8797,-2.7892c0.4398,-0.4246 -1.0612,-1.178 -0.3297,-1.196c-0.5833,-1.2569 -1.4174,-4.7671 -0.9633,-5.6383c0.7562,-1.4459 1.0032,-1.6587 2.5223,-3.2081c0.9072,-0.9263 1.006,-0.4921 1.006,-1.8972c0,-1.1827 -0.1235,-2.298 -0.1235,-3.4646c0,-1.1552 0.1387,-2.262 0.7515,-3.2367c0.6023,-0.9604 0.5234,-2.1622 0.5766,-3.2908c0.0637,-1.3775 -0.6745,-3.2176 0,-4.4099c0.2727,-0.4807 0.2537,-1.0545 0,-1.5143" fill="#a17456"/><path d="M224.5731,182.4345c0.5795,0 1.0811,-0.019 1.5846,0.2052c0.7638,0.3372 0.532,0.4218 0.3391,1.0298c-0.3382,1.0697 -0.2261,2.127 -0.6878,3.1673c-0.8018,1.7974 -1.5998,3.7677 -3.3649,4.883c-1.2027,0.7581 -2.3009,1.2787 -3.7183,1.4307c-0.6137,0.0655 -1.7261,0.2175 -1.9247,-0.3297c-0.1862,-0.5092 0.2793,-1.6634 0.6185,-1.9997c1.6454,0.8455 3.7667,-1.2179 4.8013,-2.4881c0.6308,-0.7714 0.8768,-1.6777 1.3015,-2.5279c0.4503,-0.9054 0.3572,-1.8326 0.7191,-2.7503c0.1055,-0.2688 0.1378,-0.5301 0.4684,-0.5491" fill="#4e3a78"/><path d="M250.9346,187.6851c0.1273,0.5947 0.0523,1.2835 0.0523,1.9c0,0.3544 -0.0323,0.7249 0,1.0783c0.0237,0.2783 0.151,0.5833 0.094,0.8626c-0.9167,-0.019 -1.709,-1.7347 -2.032,-2.4548c-0.2223,-0.4931 -0.4294,-0.7676 -0.7714,-1.1799c-0.343,-0.4133 -0.2679,-0.875 -0.3724,-1.3832c-0.1577,-0.7705 -0.0969,-1.6217 -0.2166,-2.4111c-0.0846,-0.5558 -0.1435,-0.7619 0.4854,-0.912c0.3382,-0.0808 0.9956,-0.1843 1.1676,0.0912c0.1453,0.227 0.0152,0.9452 0.0883,1.2312c0.0979,0.3771 0.2138,0.7828 0.3601,1.1286c0.1757,0.4132 0.2812,0.5538 0.322,1.025c0.0238,0.2803 0.4209,1.4564 0.7182,1.0783" fill="#4e3a78"/><path d="M234.2621,94.9471c0.5225,0.17 1.4355,0.5253 1.8107,0.9063c0.4978,0.5054 1.0583,1.0279 1.5438,1.5665c0.6536,0.7268 0.8787,1.4839 1.2682,2.3513c0.3506,0.7799 0.9956,1.7689 1.16,2.5982c0.3192,1.6084 -0.3078,3.5359 0.5234,4.9932c0.4038,0.7068 0.8569,1.1638 1.2189,1.9067c0.2479,0.5073 0.3097,1.0241 0.5016,1.5466c0.1786,0.4835 0.132,0.8816 0.1387,1.4155c0.0114,1.0288 -0.1131,1.88 -0.4874,2.83c-0.4189,1.0659 -0.626,2.033 -1.0868,3.1075c-0.3211,0.7486 -0.6042,1.4117 -0.8616,2.1555c-0.1549,0.4465 -0.4038,0.9339 -0.6992,1.2768c-0.1463,0.171 -0.2812,0.5786 -0.3933,0.7847c-0.095,0.1748 -0.4551,0.3306 -0.5596,0.4703c-0.5823,0.7923 -1.9323,0.6289 -2.7968,0.7039c-0.6517,0.058 -1.3566,-0.0826 -2.013,-0.0988c-0.4693,-0.0133 -0.6622,-0.057 -1.0754,-0.1567c-0.1767,0.5966 -0.361,1.3433 -0.2033,1.995c0.1624,0.6678 0.6574,0.8873 1.3727,1.3053c0.399,0.2346 0.5282,0.4978 0.438,0.9595c-0.0409,0.2147 -0.1188,0.6536 -0.1976,0.8512c-0.2565,0.6431 -1.2227,1.2293 -1.8164,1.4459c-2.299,0.8407 -4.2836,-0.2584 -6.3631,-1.2246c-1.9181,-0.8901 -3.4466,-2.5973 -4.3472,-4.5448c-0.2347,-0.5025 -0.1786,-0.4664 0.0209,-0.9927c0.1387,-0.3525 0.5253,-0.7192 0.6488,-1.0963c0.3202,-0.9814 0.0931,-1.8658 0.0437,-2.8823c-0.0503,-1.0203 0.0295,-2.167 -0.4056,-3.0752c-0.3971,-0.8293 -0.4123,-1.2027 -0.6726,-2.1175c-0.4285,0.3078 -0.7467,0.5339 -1.3633,0.4835c-0.4683,-0.038 -1.0668,-0.5909 -1.443,-0.8835c-0.4788,-0.3724 -1.0013,-0.6555 -1.3851,-1.14c-0.4684,-0.5909 -0.8104,-0.6992 -0.9149,-1.4601c-0.1045,-0.7496 -0.2964,-1.7689 -0.0912,-2.5023c0.114,-0.4019 0.2565,-0.7467 0.3411,-1.1676c0.1121,-0.5339 0.2726,-0.5928 0.8065,-0.7533c0.8037,-0.2442 1.7176,-0.0817 2.3313,0.4655c0.3411,0.303 0.4807,0.8255 0.7999,1.1514c0.3734,0.3809 0.4741,0.6925 1.1305,0.5852c-0.0266,-0.4665 0.1444,-0.9348 0.0589,-1.4108c-0.0731,-0.4132 -0.208,-0.8996 -0.455,-1.2445c-0.3743,-0.5187 -0.6156,-0.8787 -0.95,-1.4069c-0.2641,-0.4161 -0.5168,-0.5976 -0.7296,-1.0194c-0.2603,-0.5215 -0.2822,-1.1533 -0.4655,-1.7252c-0.1435,-0.4417 -0.0608,-0.8113 0.0627,-1.2549c0.2717,-0.9823 1.0811,-1.635 1.9199,-2.3532c0.2176,-0.3163 0.5719,-0.4161 0.9016,-0.6697c1.6036,-1.2274 3.3791,-1.8554 5.3969,-2.1584c1.7252,-0.2594 3.762,-0.3031 5.3647,0.2289c0.1881,-0.3344 0.4512,-0.9481 0.7742,-1.0089c0.2803,-0.0541 0.988,0.1976 1.2464,0.2613" fill="#a16235"/><path d="M236.3645,96.1498c-0.818,-0.1511 -1.2464,-0.7382 -2.0767,-1.1153c-0.4684,-0.2109 -1.0821,-0.7334 -1.483,-0.361c-0.2508,0.2318 -0.5367,0.7619 -0.6583,1.0706c-0.6698,-0.0988 -1.4858,-0.2413 -2.1565,-0.3296c-0.7268,-0.0969 -3.1198,-0.1634 -4.4118,0.2679c-1.8801,0.626 -1.8573,0.6032 -3.6024,1.6112c-0.7733,0.4465 -1.9741,1.3727 -2.5736,2.013c-0.5149,0.5491 -0.3771,0.6432 -0.6954,1.331c-0.5681,1.2255 0.0285,2.6932 0.779,3.7895c0.7629,1.1163 1.6188,2.0891 1.6188,3.4637c0,0.1701 0.0941,0.8313 0,0.9272c-0.2356,0.2394 -0.6023,0.0599 -0.7695,-0.1292c-0.3895,-0.4436 -0.5975,-1.0697 -1.0782,-1.4573c-0.2271,-0.1843 -0.5292,-0.418 -0.8018,-0.5149c-0.3259,-0.1149 -0.7087,-0.1738 -0.9738,-0.3382c-0.4883,-0.3059 -1.2321,-1.2359 -1.4259,-1.7166c-0.2917,-0.7258 -0.5406,-1.3253 -0.7315,-2.091c-0.1786,-0.7201 -0.1492,-1.424 -0.229,-2.184c-0.0874,-0.8379 -0.1149,-1.4792 0,-2.3532c0.0485,-0.3762 0.1254,-0.9671 0.2185,-1.3347c0.0969,-0.3914 -0.0513,-0.59 0.0684,-0.9586c0.2575,-0.7942 0.59,-1.8639 1.064,-2.545c0.4304,-0.6194 0.6916,-1.1163 1.2113,-1.6473c0.3258,-0.3297 0.6925,-0.7733 1.0583,-1.0564c0.2897,-0.2233 0.6716,-0.5795 0.968,-0.7971c0.6137,-0.4503 1.6606,-1.0336 2.376,-1.2996c1.7176,-0.6393 3.2661,-0.9034 5.0853,-0.6327c0.7363,0.1112 1.5628,0.323 2.262,0.6451c0.3914,0.1786 1.0877,0.665 1.3984,0.9395c0.3705,0.3278 0.8027,0.3962 1.2103,0.6498c-0.0219,-0.0228 -0.3021,-0.2308 -0.323,-0.2546c-0.0171,-0.0161 0.3059,0.2356 0.323,0.2546c0.7799,0.0722 1.2796,0.3325 1.938,0.7068c0.6925,0.3943 1.3898,0.9101 1.8582,1.5818c0.3819,0.5491 0.4807,1.1675 0.6764,1.7974c0.1159,0.3724 0.1349,0.5624 0.0997,0.9633c-0.018,0.208 0.0067,0.3923 -0.0541,0.5975c-0.0428,0.1406 -0.2793,0.4608 -0.1283,0.3686M219.5276,86.5301c-0.9633,0.3553 -2.0539,0.6564 -2.9659,1.1666c-0.9395,0.5263 -2.147,1.3784 -2.8661,2.1897c-1.1486,1.2958 -1.8497,2.6211 -2.4843,4.2085c-0.3619,0.9044 -0.5842,1.8326 -0.5842,2.8301c0,0.8445 0.0323,1.7527 0.114,2.5868c0.1691,1.7243 0.6954,3.0951 1.5884,4.6104c0.209,0.3543 0.4835,0.7571 0.7134,1.0982c0.3145,0.4674 0.7439,0.8227 1.1201,1.254c0.5453,0.627 1.9503,1.4212 1.3585,2.4624c-0.3971,0.7001 0.2052,1.0336 0.3448,1.8164c0.0599,0.3439 0.2128,0.7524 0.3905,1.045c0.1615,0.265 0.6355,0.5453 0.5747,0.8255c0.6517,0.5567 1.2322,0.9909 1.958,1.4108c0.892,0.5158 1.1352,0.3125 2.0786,-0.0513c-0.1311,0.9775 0.8683,2.2287 1.0573,3.116c0.1748,0.817 0.5377,1.7356 0.4123,2.5878c-0.114,0.7505 -0.5928,1.5646 -1.4022,1.8572c-1.8886,0.6812 -1.7128,-2.9412 -1.4782,-3.9985c-0.5035,0.4778 -0.9528,1.0307 -1.3661,1.6055c-0.4313,0.6013 -0.988,1.4478 -1.8943,1.3908c-0.7676,-0.0475 -0.475,-0.6299 -0.5643,-1.2322c-0.1273,-0.8493 0.0086,-1.6074 0.3373,-2.3949c-0.3895,0.3543 -0.7828,0.7305 -1.1286,1.1162c-0.2822,0.3164 -0.4817,0.4437 -0.7762,0.7391c-0.7058,0.7097 -1.7489,0.5729 -2.0852,-0.2964c-0.323,-0.8369 -0.1881,-1.7955 -0.1131,-2.6068c0.0865,-0.9224 0.3639,-1.8971 0.1188,-2.7873c-0.3268,0.1891 -0.5738,0.8512 -0.8075,1.1562c-0.2546,0.3325 -0.3753,0.3781 -0.7619,0.588c-0.6736,0.3667 -1.0612,0.6356 -1.445,0.0817c-0.702,-1.0146 -0.9319,-3.9007 -0.3686,-5.0245c-0.2783,0.5301 -1.1903,1.3623 -1.7841,1.4601c-0.7362,0.1207 -1.3699,-0.6498 -1.5637,-1.2787c-0.2289,-0.7381 -0.2859,-1.4896 -0.1767,-2.204c0.114,-0.7467 0.2651,-1.5561 0.3373,-2.3161c-0.627,0.5586 -1.1999,3.041 -2.4824,2.3665c-0.6194,-0.3249 -0.5443,-1.4079 -0.417,-1.9817c0.1672,-0.7553 0.2109,-1.2379 0.1805,-2.0017c-0.0789,-2.0387 2.2581,-7.2827 2.1166,-7.0015c-0.8294,1.6454 1.6359,-3.3535 2.8348,-4.7661c0.6251,-0.7344 1.4326,-1.3291 2.1802,-1.9399c0.8607,-0.703 2.1204,-1.1457 3.136,-1.6093c1.0307,-0.4712 2.09,-1.1771 3.192,-1.4554c0.5576,-0.1397 1.5618,-0.3743 2.1204,-0.4769c0.4788,-0.0874 0.8293,0.0228 1.2511,-0.1463" fill="#371e10"/><path d="M232.63,107.1565c1.1144,1.3224 -1.6425,1.7394 -2.317,1.8335c-0.6736,0.094 -1.3186,0.2555 -1.9988,0.056c-0.5368,-0.1577 -1.0612,-0.4664 -1.6055,-0.6564c-0.038,-0.6346 2.1508,-1.3965 2.6856,-1.5951c0.6584,-0.2451 2.9222,-0.3676 3.2899,0.3639M238.0602,105.4047c-0.3676,0.0009 -1.1162,1.8259 -0.759,1.6862c0.0978,-0.0389 0.9139,0.1444 1.0516,0.1397c0.266,-0.0095 0.5349,-0.1843 0.7391,-0.3544c0.7315,-0.608 1.0165,-1.0887 0.533,-1.6207c-0.4513,-0.493 -1.4174,-0.2128 -1.7803,0.2024" fill="#ffffff"/><path d="M230.4165,88.8956c0.171,0.113 0.8588,0.8208 0.7458,0.9652c-0.248,-0.1387 -0.2803,-0.2765 -0.5653,-0.4076c-0.1843,-0.0845 0.0295,-0.2061 -0.1406,-0.3249c-0.3353,-0.2384 -0.6764,-0.5681 -1.0497,-0.7163c-0.6004,-0.2394 -1.1581,-0.4854 -1.7708,-0.5747c-0.7562,-0.1121 -1.9922,-0.2812 -2.7066,-0.1387c-1.6406,0.3296 -3.1074,0.588 -4.5666,1.5238c-0.7448,0.4778 -1.6226,1.216 -2.2363,1.8316c-0.6403,0.6384 -1.2151,1.4117 -1.6806,2.1498c-0.4028,0.6394 -0.6707,1.7195 -0.969,2.2981c-0.1719,0.3334 -0.1178,0.5842 -0.2394,0.9918c-0.1206,0.4056 -0.1387,0.8312 -0.2194,1.2521c-0.323,1.6967 0.1026,3.3345 0.3334,5.0131c0.0608,0.4551 0.2204,0.9396 0.5121,1.3177c0.1311,0.171 0.1301,0.4474 0.2194,0.6422c0.0874,0.1966 0.3439,0.323 0.4228,0.5339c0.1349,0.3629 0.5472,0.9272 0.8474,1.178c0.2821,0.2365 -0.2024,-0.4028 0,0c-0.3696,0.1083 -0.571,0.3885 -0.8493,0.6963c-0.1701,0.1872 -0.5738,0.3639 -0.6375,0.6166c-0.2327,0.9129 -0.4322,-0.0988 -0.5871,-0.2157c-0.3353,-0.2508 -0.5443,-0.5206 -0.9167,-0.7657c-0.5624,-0.3695 -0.969,-1.0706 -1.33,-1.6454c-0.4057,-0.645 -0.7866,-1.3433 -1.1049,-2.0387c-0.3201,-0.7011 -0.6583,-1.2796 -0.9167,-2.0111c-0.2698,-0.76 -0.1102,-1.4725 -0.2176,-2.2705c-0.095,-0.7049 -0.3486,-1.5229 -0.1558,-2.2306c0.1843,-0.6755 0.2613,-1.5039 0.4655,-2.1888c0.114,-0.3762 0.2404,-0.6612 0.3553,-1.0441c0.1178,-0.4009 0.3097,-0.7913 0.5596,-1.1656c0.4322,-0.6432 0.5538,-0.9956 1.0858,-1.5979c0.3249,-0.3705 0.5567,-0.6546 0.9529,-0.9538c0.3211,-0.2413 0.6754,-0.6365 0.9661,-0.9006c0.5301,-0.4788 1.4744,-0.9956 2.1356,-1.3177c1.4668,-0.7134 2.7142,-0.8008 4.2741,-1.0915c0.9975,-0.1843 1.3262,-0.2385 2.3351,-0.1273c0.4132,0.0446 1.8002,0.1615 2.2211,0.2156c0.4284,0.0551 1.3851,0.3259 1.7812,0.5178c0.7999,0.3895 1.2949,0.6792 2.0064,1.3043c0.5149,0.4532 1.1476,0.8598 1.349,1.5989" fill="#bd5da4"/><path d="M246.8382,162.094c-0.303,0.8132 0.6897,2.1423 0.97,2.946c0.1957,0.5586 0.2812,1.1305 0.4598,1.6748c0.1833,0.5558 0.4864,0.9871 0.608,1.5647c0.1225,0.5757 0.1016,0.8892 -0.0504,1.463c-0.1719,0.6498 -0.0665,0.8493 0.2632,1.4164c0.6298,1.0783 0.0152,1.939 -0.3933,3.1008c-0.1615,0.4608 0.2071,0.8883 0.0997,1.388c-0.1406,0.6631 0.5472,1.1685 0.7999,1.7575c0.2176,0.5158 0.1701,0.7267 -0.2774,1.1875c-0.4484,0.4626 -1.4516,0.2356 -2.0102,0.4313c-1.5732,0.551 -3.3934,0.8189 -5.1851,1.0089c-1.6644,0.1767 -3.7059,0.2147 -5.3675,0.2973c-1.7185,0.0874 -3.1274,-0.1453 -4.7699,-0.6184c-1.7461,-0.5026 -3.0875,-0.7667 -4.8194,-1.4317c-1.3138,-0.5063 -2.6353,-1.2682 -3.8817,-1.8591c-0.5633,-0.267 -1.5323,-0.7097 -2.089,-0.5396c-0.2337,0.0703 -0.0504,0.5073 -0.343,0.5557c-0.2964,0.0494 -0.645,-0.2878 -0.8683,-0.4883c-0.8417,-0.76 -0.9538,-2.2581 -0.7391,-3.1255c0.2366,-0.9614 0.172,-1.5922 0.4123,-2.5583c0.2261,-0.9063 1.0137,-2.2021 1.9029,-2.7256c0.3334,-0.1957 0.4446,-0.1662 0.8607,-0.133c1.8563,0.1482 3.6964,0.0485 5.5546,-0.0351c3.2281,-0.1444 6.7061,0.209 9.8534,-0.6859c2.5992,-0.7391 4.9961,-1.9656 7.2428,-3.4105c0.2993,-0.191 1.6312,-1.3348 1.8383,-0.9842M260.0955,145.8699c0.513,0.5263 2.2363,2.2145 3.8598,2.4292c0.5871,0.0779 2.0397,-1.7081 2.0055,-1.9713c-0.0741,-0.5728 1.215,2.9403 -0.7553,4.3387c-0.4522,0.3192 -0.6621,0.949 -1.1286,1.2492c-0.9937,0.6365 -2.1299,0.97 -3.3145,0.97c-0.6536,0.0009 -0.8227,-0.4475 -1.4117,-0.1568c-0.5197,0.2575 -1.0783,0.9234 -1.6473,0.9719c-2.9032,0.2508 -5.6497,-0.9082 -8.3325,-2.2553c-1.4003,-0.703 -2.9136,-1.52 -4.1344,-2.5137c-1.0155,-0.8275 -2.602,-2.7256 -3.4133,-3.667c-0.1055,-0.1235 0.152,0.3933 0.0361,0.2783c0.0275,1.2531 -0.0399,2.2059 0.1444,3.4485c0.1054,0.7059 0.6042,2.1157 0.6441,2.832c0.0408,0.741 0.9053,2.508 1.0906,3.2233c0.3249,1.2521 0.2888,1.7271 0.9234,2.8823c0.2422,0.4427 0.4607,0.9776 0.721,1.3965c0.304,0.4874 0.4779,0.8322 0.6318,1.3509c0.3828,1.2854 1.5276,3.1787 0.6412,4.4004c-0.7856,1.0887 -2.9744,1.3519 -4.1581,1.8525c-1.7879,0.7553 -3.6974,1.4317 -5.5955,1.8411c-2.9061,0.628 -5.6734,0.57 -8.5035,-0.2992c-1.4411,-0.4437 -3.0694,-0.4674 -4.5856,-0.5235c-0.7496,-0.0275 -2.3152,-0.1282 -3.0419,-0.0636c-0.1948,-1.0973 1.7964,-1.7347 1.4972,-2.7436c-0.2727,-0.9206 -0.9206,-1.5238 -1.4782,-2.2164c-0.6992,-0.8711 -1.0802,-1.4193 -0.6289,-2.3237c0.5605,-1.1219 1.5542,-1.975 1.0925,-3.2442c-0.3829,-1.0498 -0.628,-2.1508 -1.1514,-3.1284c-0.2746,-0.5158 -1.1381,-2.3636 -1.7148,-2.4158c-0.0104,0.513 -0.6023,-0.8531 -0.6308,-0.3724c-0.0256,0.5025 0.1986,2.7569 0.2318,3.2632c0.0713,1.1039 -0.9196,1.8259 -1.5133,2.6268c-0.7838,1.0564 -1.3405,1.063 -2.4824,1.5266c-0.551,0.2252 -0.4949,0.8227 -0.9262,1.1647c-0.4446,0.3534 -1.7015,1.1239 -2.2553,1.1391c-1.7851,0.0522 -3.7668,0.0494 -5.738,-1.1514c-0.8066,-0.4902 -1.9342,-2.0425 -2.0919,-2.9564c-0.0855,-0.494 -0.0333,-0.9215 -0.0038,-1.4184c0.0313,-0.5149 -0.495,-1.3252 -0.6745,-1.8876c-0.2945,-0.912 -0.2594,-1.1324 0.0399,-2.148c0.1425,-0.4854 0.4018,-0.6887 0.6355,-1.1333c0.1995,-0.3781 0.1672,-0.7439 0.2812,-1.1391c0.0874,0.0162 0.1653,0.0019 0.2499,0.0304c0.0598,-0.5852 -0.2252,-0.8692 0.0446,-1.4449c0.2993,-0.6365 0.666,-1.1286 1.1039,-1.6198c0.6926,-0.7723 1.4402,-2.1555 1.5276,-3.1673c0.0988,-1.1362 0.0152,-2.3151 0.114,-3.4447c0.0561,-0.6602 0.2442,-1.2673 0.2698,-1.9332c0.0257,-0.7011 0.0219,-1.3319 0.1758,-2.0112c0.1349,-0.5956 0.2232,-1.2264 0.3847,-1.8012c0.1501,-0.5348 -0.0218,-0.8683 0.0912,-1.4155c0.1444,-0.6982 0.3126,-0.9756 0.8322,-1.5181c0.3363,-0.3477 0.6926,-0.9975 1.0678,-1.3015c0.9643,-0.779 2.0682,-1.2882 3.0619,-2.0596c0.6944,-0.5377 1.8249,-1.3813 2.6201,-1.5428c0.019,-0.5339 0.7096,-0.1529 0.7961,-0.684c0.6574,-0.0674 1.1637,-0.7733 2.0282,-0.7305c0.0152,-0.5339 0.875,-0.1188 0.9633,-0.6498c0.2907,0.3135 0.7372,-0.3221 1.1932,-0.3145c0.4779,0.0067 1.0498,-0.3344 1.4678,-0.2432c0.9927,0.2166 1.0431,1.8145 1.3889,2.4776c0.8673,1.6625 3.1673,2.5118 4.73,3.3203c1.5048,0.779 3.8095,1.3176 5.3485,0.0978c0.3962,-0.3135 1.4545,-1.4772 1.2939,-2.0216c-0.2546,-0.8588 -1.976,-0.8673 -1.7774,-2.147c0.8702,0.0171 3.0561,0.4912 4.0574,0.6536c1.1125,0.1786 2.0083,0.6631 3.0961,1.1001c1.4145,0.5681 3.0371,1.3509 3.9634,2.0435c1.2977,0.9699 3.4922,3.6309 4.6996,4.7129c2.1176,1.8991 6.7925,4.5163 8.5234,4.7101c0.57,0.0637 1.8601,-1.8411 3.2338,-1.6473c1.5181,0.2157 2.7237,0.2888 2.7997,1.8782c0.0275,0.5747 0.1463,0.7799 -0.4465,1.0858c-0.551,0.2841 -1.7841,0.6033 -2.642,3.2357" fill="#4e3a78"/><path d="M260.446,139.9951c0.0228,0.0447 -0.037,0.0808 0.038,0.0836c1.6502,-0.8046 3.4675,-1.6511 5.5623,-2.8585c0.987,-0.5691 2.0558,-0.8104 3.02,-1.388c0.475,-0.2869 1.9285,-1.0516 2.299,-1.4668c0.3762,-0.5082 0.4703,-0.4968 0.4399,-1.1267c-0.0323,-0.645 -0.1007,-1.2796 -0.1321,-1.9199c-0.0418,-0.8873 0.5491,-1.6502 1.1847,-2.2145c0.6916,-0.6127 1.5247,-1.1105 2.1498,-1.7898c0.2974,-0.322 0.4855,-0.7248 0.7895,-1.0516c0.3496,-0.3743 0.8863,-0.7496 1.0839,-1.217c0.4342,-1.0298 0.8731,-1.8582 1.1619,-2.9431c1.4478,-0.0731 2.5346,1.7528 1.538,2.9317c-0.3866,0.456 -1.1181,1.2464 -0.8455,1.9304c0.3164,0.7923 1.8183,0.0152 2.3057,-0.2156c0.9091,-0.4285 1.8591,-0.8683 2.83,-1.1343c0.7619,-0.209 1.5001,-0.4323 2.2762,-0.5795c1.0526,-0.2005 2.2116,-0.2451 3.2918,-0.1767c0.2213,0.0152 0.8094,0.0988 0.7913,0.4389c-0.0133,0.2527 -0.6992,0.5215 -0.9234,0.6137c-0.9642,0.3942 -2.0615,0.5434 -3.0723,0.8008c-0.6479,0.1644 -2.4529,0.323 -2.7569,1.0327c0.5026,0.1558 1.0612,0.0057 1.5637,-0.0675c0.7809,-0.114 1.5495,-0.1691 2.3351,-0.228c1.2911,-0.0978 2.6201,-0.285 3.9045,-0.265c0.799,0.0123 1.2977,0.8483 0.6536,1.4402c-0.646,0.5947 -1.8477,0.7752 -2.6657,1.0174c-0.9044,0.2679 -1.7879,0.6945 -2.6837,0.9966c-0.4057,0.1377 -0.8009,0.2774 -1.1847,0.4835c-0.5567,0.2983 -0.3724,0.4114 0.1777,0.5377c0.4142,0.096 5.7494,0.0114 5.034,1.1828c-0.2023,0.3315 -0.8977,0.3277 -1.2578,0.3952c-0.873,0.1624 -1.7508,0.2983 -2.6267,0.4503c-1.2445,0.2156 -2.4757,0.0646 -3.6984,0.5149c-1.8696,0.6897 -3.7715,1.405 -5.6971,1.7869c-0.7325,0.1444 -1.5191,0.1691 -2.1176,0.666c-0.6916,0.5728 -1.2369,1.272 -1.8439,1.9323c-1.0707,1.1666 -2.3636,2.1441 -3.4447,3.3364c-1.0184,1.1238 -2.1157,2.2106 -3.2205,3.2414c-0.6213,0.5795 -1.1096,1.2017 -1.6682,1.8344c-0.4294,0.4883 -0.5824,1.3053 -1.3082,1.2607c-0.7058,-0.0447 -1.5048,-0.6802 -2.1033,-1.0317c-0.285,-0.1663 -0.4759,-0.3401 -0.6992,-0.5776c-0.2517,-0.2651 -0.5472,-0.3848 -0.8236,-0.6137c-0.6014,-0.4988 -0.7762,-1.2265 -0.8446,-1.92c-0.0703,-0.7039 0.1235,-1.4212 0.305,-2.1489c0.1235,-0.4921 0.1396,-0.8816 0.4626,-1.2673c0.3819,-0.4579 1.197,-0.4085 1.6226,-0.8341" fill="#a16235"/><path d="M223.6354,121.1329c0.9358,-0.3021 0.5396,0.9604 0.3468,1.405c-0.2613,0.6052 -0.6745,0.8009 -1.0688,1.3177c-0.4085,0.5348 -0.7628,1.1457 -1.0526,1.7537c-0.1244,0.2584 -0.3857,0.6887 -0.5282,0.9395c-0.1558,0.2689 -0.1938,0.4598 -0.227,0.7638c0.7495,0.0903 1.5171,0.4769 2.2306,0.7087c0.6783,0.2185 0.7894,0.8531 0.7894,1.4896c0,0.3506 0.0285,0.7201 -0.0532,1.0441c-0.0902,0.3591 -0.3002,0.6811 -0.341,1.0621c-0.0865,0.8046 -0.4171,1.4183 -0.6859,2.1698c-0.2242,0.626 -0.2736,1.2806 -0.3696,1.9532c-0.0589,0.4284 0.0675,0.6184 -0.3486,0.8683c-0.2565,0.152 -1.0982,-0.191 -1.2217,0.0893c-0.2717,0.0285 0.1016,0.5823 0.0826,0.798c-0.0712,0.7562 -0.3268,1.6482 -0.6621,2.3218c-0.1568,0.3173 -0.4237,0.2745 -0.7629,0.4056c-0.4389,0.171 -0.7609,0.0342 -0.8512,0.8284c-0.1852,1.6454 -1.0801,2.888 -1.9047,4.2959c-0.3582,0.6128 -0.3772,1.3709 -0.5482,2.0615c-0.0902,0.3648 -0.171,0.7353 -0.3268,1.0859c-0.1957,0.4351 -0.5871,0.6583 -0.6507,1.1267c-0.0589,0.4161 0.0066,0.6925 -0.1188,1.0782c-0.1064,0.3221 -0.55,0.8132 -0.6327,1.1296c-0.1757,0.6773 -0.076,1.1694 -0.4227,1.7727c-0.7971,1.3889 -2.6781,1.1362 -3.9663,0.5282c-0.5975,-0.2803 -1.3955,-0.5966 -1.8867,-1.0184c-0.4978,-0.4304 -0.8512,-1.2027 -1.1637,-1.7642c-0.2556,-0.456 -0.4826,-1.4839 -0.1758,-1.9532c0.172,-0.2631 0.5852,-0.4484 0.8227,-0.6678c0.2774,-0.2565 0.494,-0.5672 0.7116,-0.8683c0.9025,-1.235 2.2192,-2.1727 3.0476,-3.4428c0.3904,-0.6014 0.9148,-1.0678 1.3176,-1.6559c0.4427,-0.6479 0.8683,-1.3328 1.2721,-2.0159c0.3866,-0.6536 0.798,-1.2787 0.968,-1.9741c0.1748,-0.721 0.285,-1.5846 0.3601,-2.3237c0.0779,-0.7685 -0.001,-1.3233 -0.001,-2.1061c0,-0.818 0.0627,-4.3368 0.1387,-5.1262c0.1463,-1.5884 0.1378,-0.6679 1.407,-1.7081c0.6203,-0.5073 1.0402,-1.0973 1.5789,-1.6654c0.5985,-0.6308 0.9956,-1.0858 1.577,-1.7385c0.5234,-0.5861 1.4668,-1.1134 1.957,-1.7375c0.532,-0.6755 0.9604,-1.0517 1.8525,-1.0517" fill="#a16235"/><path d="M239.528,116.5501c-0.0038,0.2479 -0.1235,0.3819 -0.1853,0.6061c-0.0912,0.3106 0.0086,0.6916 -0.2413,0.8968c-0.1843,0.1529 -0.6887,0.2337 -0.93,0.3068c-0.3781,0.114 -2.0938,0.3914 -2.4814,0.1824c-0.6878,-0.3676 3.2594,-1.7556 3.8399,-2.0795" fill="#ffffff"/><path d="M229.3554,106.8468c0.6431,0.2584 0.7144,1.4753 0.3011,1.994c-0.4655,0.5814 -1.5143,0.1653 -2.128,0.0029c-1.995,-0.5273 0.9624,-2.0064 1.8259,-2.1575M238.159,105.151c-0.398,0.0133 -0.4997,0.5586 -0.5804,0.8294c-0.0447,0.151 -0.2328,0.2109 -0.2879,0.3657c-0.056,0.1549 -0.1681,0.4731 -0.0332,0.6641c0.1159,0.1681 0.8455,0.1757 1.0174,0.1159c0.3363,-0.1188 0.6204,-0.4617 0.6204,-0.8332c0,-0.3059 -0.0608,-0.6298 -0.2176,-0.8768c-0.0988,-0.1539 -0.2992,-0.3069 -0.475,-0.2936c-0.1966,0.0152 -0.3534,0.2356 -0.5367,0.2964" fill="#371e10"/><path d="M229.9035,268.2584c-1.1571,1.5818 -2.8519,2.0672 -4.6901,2.433c-2.4216,0.4835 -4.3387,1.8373 -6.6301,2.6885c-2.5925,0.9709 -5.4644,0.5301 -8.1168,0.0418c-1.6017,-0.2936 -5.072,-0.8284 -5.5584,-2.7921c-0.3202,-1.2986 1.3984,-2.2486 2.3218,-2.698c0.9585,-0.4636 1.9608,-0.7913 2.8139,-1.4468c1.0089,-0.7762 1.8164,-1.6407 2.944,-2.2629c0.1254,-0.0694 0.5976,0.1216 0.4114,0.2232c-1.6502,0.9149 -2.8063,2.3893 -4.541,3.1759c-1.2588,0.57 -3.3022,1.2027 -3.4618,2.8443c-0.2109,2.166 4.9153,2.7284 6.2671,2.9298c2.9859,0.4455 5.359,0.3771 8.1738,-0.9358c1.616,-0.7543 2.9811,-1.5922 4.7424,-1.9494c1.8924,-0.3838 3.6499,-0.798 4.8488,-2.4377c0.0874,-0.1206 0.5795,0.0456 0.475,0.1862zM229.2034,272.0746c-1.9371,0.3667 -3.6879,1.1257 -5.2849,2.2781c-1.2454,0.8958 -2.1536,1.9893 -3.5967,2.6011c-2.7255,1.1561 -6.1655,0.7457 -9.0183,0.455c-1.596,-0.1624 -3.2044,-0.341 -4.7909,-0.5795c-0.8103,-0.1216 -1.6235,-0.3458 -2.2258,-0.9281c-1.5932,-1.5409 -0.2774,-4.7719 0.778,-6.1988c0.1454,-0.1976 0.628,0.0105 0.4627,0.2309c-1.3215,1.785 -2.5156,5.6078 0.4332,6.3963c1.3357,0.3572 2.811,0.3886 4.1828,0.5567c1.3063,0.1587 2.6125,0.2755 3.9273,0.3344c2.9099,0.133 5.9489,0.0276 8.1862,-2.0748c1.9228,-1.8059 4.1819,-2.9697 6.7763,-3.4637c0.2641,-0.0475 0.5073,0.3287 0.1701,0.3924zM229.3877,271.8057c0.0142,0.02 0.0285,0.0428 0.0437,0.0637c-0.1463,-0.038 -0.2926,-0.0789 -0.4399,-0.1169c0.4095,-0.171 0.5966,-1.2464 0.6736,-1.6045c0.189,-0.8826 -0.0162,-1.7461 -0.3762,-2.5508c-0.0703,-0.1548 0.4341,-0.0997 0.5073,0.0646c0.418,0.9291 0.5424,1.843 0.3296,2.8415c-0.0817,0.3809 -0.3049,1.3119 -0.7305,1.4905c-0.1321,0.057 -0.3563,0.0038 -0.4389,-0.1178c-0.0143,-0.019 -0.0276,-0.0418 -0.0428,-0.0627c-0.1292,-0.1909 0.3829,-0.1444 0.4741,-0.0076z" fill="#010101"/><path d="M263.3112,266.7213c0.0817,2.699 -0.1235,5.6202 -3.2414,6.2985c-0.208,0.0447 -0.6032,-0.265 -0.2964,-0.3315c2.9802,-0.6479 3.1008,-3.4685 3.0248,-6.0107c-0.0085,-0.2565 0.5064,-0.1738 0.513,0.0437zM234.2982,268.5263c-0.3809,1.1201 -0.398,2.0739 -0.1358,3.2224c-0.1159,-0.0665 -0.2318,-0.133 -0.3477,-0.1995c0.7866,-0.0256 1.7727,0.3895 2.5526,0.5083c1.2056,0.1805 2.4339,0.1947 3.6499,0.1634c2.3874,-0.0608 4.7586,-0.4161 7.145,-0.494c2.1812,-0.0713 4.1724,0.5529 6.2187,1.2084c2.2163,0.7077 4.7215,0.5196 6.8675,-0.3335c0.2043,-0.0817 0.5938,0.2138 0.2964,0.3306c-1.6739,0.666 -3.4504,0.8683 -5.2402,0.7325c-2.4225,-0.1796 -4.6075,-1.388 -7.0642,-1.5656c-2.5023,-0.1805 -5.0844,0.3249 -7.5838,0.455c-1.102,0.0589 -2.2021,0.0399 -3.3003,-0.0408c-0.495,-0.0361 -0.9947,-0.0979 -1.4839,-0.1872c-0.5577,-0.0988 -1.3262,-0.4436 -1.8782,-0.4227c-0.1358,0.0047 -0.3125,-0.0485 -0.3458,-0.1995c-0.2764,-1.2094 -0.2612,-2.1337 0.1397,-3.3146c0.0779,-0.2213 0.5842,-0.0807 0.5101,0.1368zM239.0511,268.0513c1.5798,-0.3752 3.2309,0.1986 4.7338,0.6536c2.49,0.7581 4.9818,1.4706 7.5801,1.7053c2.089,0.19 4.2132,0.1197 6.2557,-0.3696c0.9966,-0.2384 1.939,-0.645 2.8101,-1.1789c0.4836,-0.2964 2.451,-1.7623 2.1385,-2.4111c-0.0418,-0.0865 0.4389,-0.0456 0.5025,0.0874c0.248,0.5158 -0.7866,1.349 -1.1086,1.6729c-0.6318,0.6375 -1.4573,1.1343 -2.28,1.4782c-1.8962,0.7847 -3.9159,1.0241 -5.9546,1.0336c-1.9285,0.0076 -3.858,-0.2299 -5.7361,-0.6564c-1.3243,-0.3002 -2.6201,-0.7296 -3.9273,-1.0906c-1.4839,-0.4123 -3.0391,-1.0897 -4.598,-0.7182c-0.1197,0.0247 -0.5691,-0.171 -0.4161,-0.2062zM239.4795,268.3012c-1.6805,0.1121 -3.7259,1.2673 -5.32,0.2631c-0.2926,-0.1843 0.1435,-0.2907 0.3221,-0.1786c1.3081,0.8237 3.3896,-0.3049 4.807,-0.4009c0.2128,-0.0123 0.5367,0.2936 0.1909,0.3164zM262.9996,266.6406c-3.2765,-0.8911 -7.1953,-1.1457 -9.9199,-3.3697c-0.2251,-0.1833 0.2822,-0.1805 0.4066,-0.0798c2.5964,2.1166 6.4496,2.3465 9.5817,3.1977c0.305,0.0846 0.2356,0.3344 -0.0684,0.2518zM234.7951,266.614c-0.6109,0.6935 -0.6584,1.3661 -0.57,2.2505c0.0247,0.248 -0.4921,0.1663 -0.513,-0.0456c-0.095,-0.9424 -0.0333,-1.6853 0.6146,-2.4215c0.1425,-0.1606 0.628,0.0361 0.4684,0.2166z" fill="#010101"/><path d="M224.669,182.3195c-0.2023,2.6553 -1.4706,5.5015 -3.5207,7.2371c-0.7923,0.6707 -3.0362,2.4757 -4.0232,1.1932c-0.1463,-0.1928 0.2156,-0.2574 0.322,-0.1159c0.8921,1.16 3.7278,-1.5276 4.3187,-2.147c1.483,-1.5494 2.3627,-4.1705 2.5223,-6.27c0.0142,-0.1767 0.3952,-0.0845 0.3809,0.1026zM224.4828,182.2825c0.76,0.0351 1.4678,0.1871 2.205,0.3676c0.038,0.0095 0.1833,0.0485 0.1757,0.1074c-0.3296,2.659 -1.3214,5.9109 -3.0799,7.9961c-1.7147,2.034 -4.4384,2.5508 -6.972,2.2249c-0.0941,-0.0114 -0.4152,-0.1786 -0.1672,-0.1472c2.9649,0.379 5.7541,-0.4921 7.3653,-3.0951c0.7144,-1.1552 1.235,-2.4339 1.6825,-3.7117c0.2204,-0.6355 0.3942,-1.2853 0.5472,-1.9389c0.3353,-1.4165 0.0047,-1.5808 -1.5884,-1.6549c-0.0988,-0.0048 -0.419,-0.1606 -0.1682,-0.1482zM249.5229,182.9c0.0941,1.748 0.4351,3.4684 1.3414,4.9865c0.0428,0.0713 -0.3163,0.0418 -0.3781,-0.0589c-0.9148,-1.5314 -1.2483,-3.268 -1.3442,-5.0302c-0.0057,-0.0798 0.3733,-0.0266 0.3809,0.1026zM249.3329,183.0244c-0.6745,0.039 -1.7147,-0.0057 -1.5969,0.9111c0.0636,0.5016 0.1539,0.9994 0.2498,1.4943c0.1986,1.0393 0.4969,2.0549 0.8892,3.0372c0.381,0.9595 1.0099,1.6976 1.5751,2.5422c0.1767,0.2622 -0.0437,0.0997 -0.0028,0.0988c0.17,-0.0048 0.3439,0.0551 0.5035,0.1016c0.2232,0.0665 0.1776,0.2413 -0.0466,0.1767c-0.9357,-0.2764 -1.0944,-0.7334 -1.7233,-1.6425c-1.2768,-1.843 -1.6596,-4.37 -1.9076,-6.5465c-0.0057,-0.0503 0.0314,-0.0608 0.0722,-0.0722c0.6137,-0.1491 1.2056,-0.265 1.8364,-0.3002c0.1339,-0.0114 0.4085,0.1843 0.151,0.1995z" fill="#010101"/><path d="M245.4474,189.6887c-3.9111,0.9918 -7.1155,3.2015 -9.7783,6.193c-0.0817,0.095 -0.4465,-0.0427 -0.3553,-0.1425c2.7008,-3.0343 5.9356,-5.2402 9.8971,-6.2453c0.1111,-0.0294 0.4465,0.1406 0.2365,0.1948zM221.4514,176.0058c-0.494,1.179 -0.7667,2.3779 -1.0935,3.6062c-0.4997,1.881 -1.1599,3.724 -1.6672,5.605c-1.0156,3.7668 -1.749,7.6048 -2.2943,11.4646c-0.0218,0.1577 -0.5329,0.0418 -0.5092,-0.1387c0.5235,-3.7021 1.235,-7.372 2.1698,-10.9934c0.495,-1.9161 1.0688,-3.8142 1.6825,-5.6962c0.4341,-1.3328 0.6574,-2.6809 1.2036,-3.9852c0.0694,-0.1644 0.5681,-0.0076 0.5083,0.1377zM249.3985,178.4559c0.7524,1.9133 0.9595,3.9339 1.2454,5.9536c0.3031,2.1394 0.5282,4.2978 0.6223,6.4562c0.1947,4.4251 -0.1197,8.8208 -1.2151,13.1214c-0.038,0.1492 -0.5472,0.0171 -0.5082,-0.1377c1.0545,-4.1382 1.386,-8.3695 1.2369,-12.6284c-0.0808,-2.3075 -0.3316,-4.6037 -0.6422,-6.8875c-0.2755,-2.0187 -0.495,-4.0451 -1.2455,-5.9546c-0.0532,-0.133 0.4465,-0.0722 0.5064,0.077zM216.3204,196.6332c-0.0712,2.4814 -0.9053,4.9504 -1.292,7.3967c-0.4826,3.059 -1.0355,6.0838 -1.6748,9.1133c-0.6318,2.9973 -1.0365,6.0249 -1.407,9.063c-0.1976,1.6283 -0.4094,3.2528 -0.5852,4.883c-0.1833,1.6929 -0.6536,3.3583 -0.6973,5.0626c-0.0076,0.2745 -0.5225,0.2033 -0.5158,-0.0342c0.0342,-1.2844 0.3192,-2.5204 0.5348,-3.782c0.2689,-1.577 0.3762,-3.1948 0.5738,-4.7861c0.3819,-3.0666 0.741,-6.1265 1.3148,-9.1637c0.5748,-3.0333 1.2474,-6.0363 1.7309,-9.0867c0.2252,-1.4307 0.4266,-2.8652 0.7334,-4.2798c0.3173,-1.4573 0.7277,-2.9193 0.7705,-4.4165c0.0057,-0.2784 0.5206,-0.2052 0.5139,0.0304zM250.0996,203.9852c-0.1321,1.3766 -0.7553,2.7417 -1.0317,4.1078c-0.3363,1.6597 -0.589,3.3355 -0.76,5.017c-0.3639,3.5691 -0.418,7.1658 -0.3249,10.7492c0.0503,1.9209 0.0655,3.8456 0.1786,5.7646c0.1178,1.9855 0.2479,4.3577 1.3746,6.0667c0.1473,0.2233 -0.3714,0.21 -0.4816,0.0418c-1.0365,-1.5703 -1.2018,-3.6556 -1.3566,-5.4777c-0.1824,-2.1422 -0.1615,-4.2959 -0.228,-6.4419c-0.0998,-3.2728 -0.0247,-6.5512 0.2365,-9.8145c0.1349,-1.6976 0.3705,-3.3772 0.666,-5.054c0.1425,-0.8179 0.3163,-1.6359 0.4949,-2.4481c0.2014,-0.9063 0.6337,-1.7176 0.723,-2.6486c0.0209,-0.209 0.531,-0.0893 0.5092,0.1377zM248.6119,235.2659c0.8493,0.2745 1.8126,0.6013 1.975,1.5865c0.0884,0.5348 -0.171,1.1647 -0.3135,1.6625c-0.303,1.0545 -0.6108,2.1147 -0.8721,3.1787c-0.3372,1.3613 0.0247,1.6558 0.7657,2.6248c0.5387,0.703 0.8835,1.5419 1.1476,2.3807c0.5368,1.7034 0.4684,3.5711 -0.0114,5.2754c-0.0703,0.2517 -0.5785,0.113 -0.5082,-0.1378c0.4721,-1.6786 0.4797,-3.3848 0.0294,-5.0673c-0.2194,-0.8208 -0.6127,-1.5846 -1.0887,-2.2838c-0.2156,-0.3163 -1.0288,-0.8521 -1.0307,-1.1818c-0.0133,-1.5865 0.5557,-3.1093 0.9747,-4.6227c0.151,-0.551 0.3505,-1.0982 0.3952,-1.6729c0.0674,-0.8664 -0.9158,-1.1571 -1.5637,-1.3661c-0.3097,-0.1007 -0.2128,-0.476 0.1007,-0.3762zM237.3268,226.372c-0.1824,1.6492 -0.3078,3.305 -0.512,4.9504c-0.2147,1.7243 -0.704,3.3801 -1.0498,5.0787c-0.5852,2.8728 -0.608,5.8539 -0.9167,8.7581c-0.0057,0.0655 -0.3914,-0.0057 -0.381,-0.1007c0.3097,-2.9127 0.381,-5.8701 0.9187,-8.76c0.2964,-1.5988 0.7723,-3.1473 1.0079,-4.7633c0.2546,-1.7442 0.3591,-3.5121 0.5539,-5.2639c0.0028,-0.0665 0.3876,0.0066 0.379,0.1007zM241.3719,191.4557c-0.4769,2.5906 -0.6412,5.2193 -1.1419,7.8185c-0.5453,2.8253 -0.9699,5.6715 -1.5095,8.4987c-1.1828,6.1864 -1.4583,12.2825 -1.3908,18.5696c0.0019,0.1843 -0.3829,0.1178 -0.3848,-0.0361c-0.0655,-6.1427 0.1558,-12.1172 1.3053,-18.1649c0.5434,-2.8614 0.9776,-5.7409 1.5286,-8.6023c0.5225,-2.7189 0.7144,-5.4729 1.2122,-8.1842c0.0285,-0.1615 0.4113,-0.0656 0.3809,0.1007zM234.8236,193.9219c2.0805,-0.4038 3.6689,-2.052 5.7114,-2.604c0.1026,-0.0275 0.4455,0.133 0.3068,0.1701c-2.0672,0.5586 -3.6698,2.2106 -5.7788,2.621c-0.1045,0.02 -0.4484,-0.1472 -0.2394,-0.1871zM234.4816,255.4372c0.5595,-0.912 1.2036,-1.7679 1.7423,-2.6951c0.3819,-0.6565 0.7486,-1.3376 0.6488,-2.1176c-0.0674,-0.5253 -0.551,-1.1229 -0.8113,-1.5694c-0.7609,-1.3024 -1.1837,-2.5403 -1.5969,-3.9662c-0.0485,-0.1691 0.3401,-0.1188 0.3847,0.0332c0.2233,0.7743 0.3876,1.5096 0.6954,2.2582c0.3876,0.9471 0.9719,1.7793 1.4725,2.6714c1.0099,1.8059 -1.3072,4.1173 -2.185,5.548c-0.0826,0.1339 -0.4493,-0.0029 -0.3505,-0.1625zM253.4198,263.4552c-0.8673,-1.0098 -1.5637,0.8674 -1.9532,1.4906c-0.474,0.7581 -1.3205,1.1552 -2.1698,1.3262c-2.5716,0.5149 -5.1119,-0.2138 -7.638,-0.6641c-1.3376,-0.2394 -2.85,-0.4645 -4.1676,-0.0285c-0.8446,0.2793 -1.6606,0.6308 -2.508,0.9006c-0.628,0.2005 -1.9808,0.6251 -2.3636,-0.2023c-0.0608,-0.1321 0.436,-0.077 0.5054,0.0722c0.3059,0.6621 3.9035,-1.0118 4.5039,-1.1619c2.1822,-0.5377 4.7852,0.3468 6.917,0.7363c1.595,0.2926 3.1977,0.4189 4.7823,0.0019c1.3433,-0.3553 1.6045,-1.3063 2.2961,-2.3133c0.3202,-0.4655 0.8075,-0.8806 1.4136,-0.8702c0.4912,0.0067 0.5681,0.3886 0.8493,0.7182c0.134,0.1549 -0.3705,0.1055 -0.4674,-0.0057zM251.3517,251.7645c0.9215,0.7771 1.6435,1.9124 2.3911,2.8548c0.9206,1.1656 1.8012,2.356 2.642,3.5815c0.1121,0.1615 -0.3886,0.0921 -0.4646,-0.02c-0.6802,-0.9889 -1.3908,-1.957 -2.1204,-2.9089c-0.8683,-1.1314 -1.7508,-2.5422 -2.8433,-3.4637c-0.209,-0.1795 0.2964,-0.1273 0.3952,-0.0437zM256.4085,258.2568c-0.341,1.0488 -0.6384,2.1128 -1.0212,3.1483c-0.2936,0.7952 -0.6536,1.8649 -1.3946,2.3589c-0.1729,0.1149 -0.627,-0.1245 -0.3962,-0.2784c0.8142,-0.5462 1.1505,-1.8392 1.4621,-2.7122c0.3106,-0.875 0.5538,-1.7699 0.8417,-2.6524c0.0703,-0.2166 0.5766,-0.076 0.5082,0.1358zM209.9412,259.014c-0.913,1.0982 -1.8174,2.1441 -2.6239,3.325c-0.1055,0.1558 -0.5976,-0.02 -0.4693,-0.2071c0.8065,-1.1799 1.71,-2.2268 2.6229,-3.325c0.1226,-0.1473 0.609,0.037 0.4703,0.2071zM207.3372,262.3038c-0.7571,2.1546 1.1942,3.1084 1.8839,4.8403c0.0589,0.1482 -0.4456,0.0902 -0.5073,-0.0694c-0.3192,-0.7999 -1.0498,-1.4392 -1.5105,-2.1612c-0.5434,-0.8512 -0.7125,-1.7851 -0.3762,-2.7446c0.0608,-0.1681 0.5652,-0.0199 0.5101,0.1349zM206.0547,251.0644c-0.0864,3.3221 1.0688,6.8504 2.1575,9.955c0.038,0.1064 -0.4541,0.0485 -0.5016,-0.0864c-1.0973,-3.1265 -2.2534,-6.6576 -2.1651,-10.0054c0.0029,-0.0969 0.513,-0.0143 0.5092,0.1368zM205.5389,251.1033c0.8341,-1.5779 2.2401,-2.7037 3.4485,-3.9824c0.1339,-0.1425 0.6175,0.0494 0.4702,0.2081c-1.1827,1.2559 -2.5935,2.3636 -3.4105,3.9121c-0.1007,0.1871 -0.5975,0.0275 -0.5082,-0.1378zM208.9636,247.2045c-0.0009,-2.0007 -0.4864,-4.1942 0.1188,-6.1351c0.4208,-1.349 0.9576,-2.5279 1.1219,-3.9548c0.1872,-1.6521 0.0095,-3.3459 -0.056,-4.9989c-0.0105,-0.2679 0.5063,-0.1957 0.5149,0.038c0.1073,2.773 0.3496,5.4815 -0.7173,8.112c-0.9224,2.2743 -0.4674,4.5809 -0.4664,6.9768c-0.001,0.2689 -0.5159,0.1948 -0.5159,-0.038zM232.9796,263.5768c0.8636,-1.5798 2.204,-2.7939 3.3687,-4.1429c0.0808,-0.0941 0.4446,0.0408 0.3553,0.1434c-1.1514,1.3348 -2.489,2.5384 -3.343,4.1002c-0.0656,0.1235 -0.4332,-0.0047 -0.381,-0.1007zM236.3369,259.4766c-0.6536,-1.7423 -1.4734,-3.3991 -2.4215,-4.9989c-0.0817,-0.1387 0.2954,-0.0845 0.3496,0.0086c0.9585,1.6159 1.7907,3.286 2.4491,5.0464c0.0389,0.1035 -0.3344,0.057 -0.3772,-0.0561zM230.5904,267.563c-2.9099,0.2793 -5.7694,0.1986 -8.5994,-0.5947c-1.4241,-0.398 -2.7921,-1.0127 -4.1753,-1.5323c-0.7562,-0.2841 -1.5067,-0.5795 -2.2515,-0.8949c-1.0241,-0.4332 -2.1546,-0.9586 -2.8424,0.2308c-0.0845,0.1454 -0.5785,-0.0152 -0.4721,-0.2004c1.197,-2.0729 4.255,0.0788 5.7674,0.6526c2.0729,0.7847 4.0964,1.6245 6.2947,1.9922c2.0074,0.3353 4.0622,0.2508 6.0791,0.057c0.2004,-0.0219 0.5415,0.2565 0.1995,0.2897zM230.3975,267.2286c0.7895,-0.0228 1.5238,-0.5918 1.995,-1.1894c0.4921,-0.6241 0.5073,-1.7185 0.5301,-2.4766c0.0095,-0.2812 0.5254,-0.2147 0.5168,0.0313c-0.0285,0.9614 -0.0807,2.0397 -0.6954,2.8215c-0.5424,0.6897 -1.4307,1.1847 -2.3066,1.2103c-0.303,0.0086 -0.3838,-0.3876 -0.0399,-0.3971z" fill="#010101"/><path d="M215.1662,139.3814c-1.1115,2.0178 -2.432,3.8798 -3.877,5.6715c-1.387,1.7167 -3.001,3.2281 -4.3586,4.9714c-0.152,0.1957 -0.6327,-0.0133 -0.4645,-0.2309c1.3575,-1.7423 2.9602,-3.2651 4.3595,-4.9713c1.4564,-1.7775 2.7674,-3.6575 3.876,-5.6715c0.1178,-0.2147 0.5985,-0.0143 0.4646,0.2308zM219.4459,140.016c-0.8303,2.622 -1.9636,5.1015 -2.9554,7.658c-0.8455,2.1755 -1.5067,4.4013 -2.4729,6.5303c-0.0864,0.1909 -0.5871,0.0361 -0.5092,-0.1378c0.9662,-2.127 1.6521,-4.3472 2.4738,-6.5303c0.9662,-2.5678 2.1252,-5.035 2.9564,-7.6589c0.0627,-0.1938 0.5681,-0.0494 0.5073,0.1387zM219.3234,139.997c0.9823,0.5871 1.2768,-2.3085 1.387,-2.8433c0.0399,-0.1957 0.55,-0.0665 0.5092,0.1368c-0.2233,1.0849 -0.4456,3.9434 -2.2183,2.8851c-0.2964,-0.1776 0.1425,-0.285 0.3221,-0.1786zM214.7472,139.199c0.3506,-2.2524 0.5653,-4.407 0.5529,-6.6832c-0.0057,-0.9538 -0.0066,-1.9105 0.0599,-2.8633c0.0256,-0.3743 0.0218,-1.0412 0.3705,-1.2911c0.1434,-0.1016 0.608,0.0998 0.4731,0.1967c-0.3696,0.265 -0.3259,1.1058 -0.3534,1.5019c-0.0589,0.8607 -0.0437,1.729 -0.0409,2.5926c0.0095,2.2762 -0.2014,4.4308 -0.5519,6.6842c-0.0276,0.1643 -0.5377,0.0456 -0.5102,-0.1378zM215.5585,128.4726c2.6144,-2.0796 4.5714,-4.8935 7.163,-7.0253c0.1881,-0.1558 0.6213,0.114 0.3867,0.3059c-2.5926,2.1337 -4.5448,4.9448 -7.1621,7.0262c-0.1909,0.1511 -0.6251,-0.1197 -0.3876,-0.3068zM220.4111,126.8861c1.0232,0.3534 4.6094,0.7258 3.7421,2.5583c-0.0703,0.1473 -0.5634,-0.0209 -0.5083,-0.1377c0.7809,-1.6502 -2.4291,-1.9209 -3.42,-2.2658c-0.341,-0.1149 -0.0237,-0.227 0.1862,-0.1548zM220.1394,128.1866c1.0688,0.1368 2.1765,0.2147 3.1531,0.7087c1.3034,0.6593 1.0383,1.9257 0.3904,3.0039c-0.0779,0.1292 -0.5529,-0.0617 -0.5082,-0.1377c0.5481,-0.913 0.9595,-2.0872 -0.1283,-2.7664c-0.7999,-0.4978 -1.9066,-0.4988 -2.8148,-0.6137c-0.209,-0.0257 -0.4513,-0.2404 -0.0922,-0.1948zM222.2209,133.7698c-1.0612,-0.1568 -0.9814,2.944 -1.0707,3.5872c-0.0275,0.2052 -0.5377,0.0826 -0.5082,-0.1378c0.1311,-0.95 -0.0903,-4.0194 1.5238,-3.78c0.2622,0.0389 0.4037,0.3828 0.0551,0.3306zM220.8538,136.5514c1.6977,0.2014 1.5618,-1.2236 1.8582,-2.5023c0.1644,-0.6973 0.3107,-1.3908 0.4038,-2.1014c0.095,-0.742 -2.2705,-0.9035 -2.7512,-0.9795c-0.2005,-0.0313 -0.4551,-0.2356 -0.0969,-0.1786c1.0934,0.1729 2.1631,0.4047 3.2205,0.7429c0.0437,0.0143 0.1729,0.058 0.1672,0.1216c-0.1121,1.4725 -0.4218,3.1103 -0.8816,4.5154c-0.2404,0.7343 -1.0906,0.6498 -1.7005,0.5776c-0.1235,-0.0152 -0.5529,-0.2356 -0.2195,-0.1957zM220.0587,129.1955c1.3404,0.0257 2.6115,0.3867 3.8893,0.7619c0.3135,0.0922 0.2137,0.4693 -0.1017,0.3762c-1.2331,-0.3619 -2.4567,-0.7134 -3.7506,-0.7381c-0.2973,-0.0067 -0.38,-0.4057 -0.037,-0.4zM222.5401,121.6174c0.3135,-0.3183 1.8078,-1.2873 1.8069,-0.076c0,0.8844 -0.6204,1.596 -1.1077,2.2819c-0.7705,1.083 -1.5694,2.1432 -2.0501,3.3915c-0.057,0.1501 -0.5586,-0.0048 -0.5083,-0.1378c0.4418,-1.1514 1.1514,-2.1441 1.8658,-3.1397c0.438,-0.6109 0.9367,-1.2113 1.2065,-1.92c0.0903,-0.2384 0.1055,-0.4959 0.0589,-0.7457c-0.0399,-0.2185 -0.8065,0.5396 -0.7961,0.5291c-0.1073,0.1112 -0.5852,-0.0731 -0.4759,-0.1833z" fill="#010101"/><path d="M260.0347,140.3172c1.9988,-0.8797 3.7724,-2.1565 5.7332,-3.1065c2.0178,-0.9785 4.1354,-1.8107 5.909,-3.2139c0.1473,-0.1168 0.6194,0.0855 0.4703,0.2043c-1.6844,1.3309 -3.6651,2.1793 -5.5984,3.0856c-2.0995,0.9851 -3.9871,2.3522 -6.1123,3.287c-0.1596,0.0703 -0.6213,-0.1587 -0.4018,-0.2565zM276.045,136.2901c-1.8145,2.072 -4.0299,3.8646 -5.9745,5.8235c-1.9589,1.976 -3.6328,4.2142 -5.6316,6.1522c-0.1074,0.1045 -0.5786,-0.0826 -0.4769,-0.1814c1.9988,-1.9371 3.686,-4.1648 5.6325,-6.1513c1.9342,-1.975 4.1572,-3.7487 5.9746,-5.8235c0.0931,-0.1111 0.5747,0.0665 0.4759,0.1805zM271.3843,134.2847c0.5301,-1.957 -0.6536,-3.8732 1.1362,-5.3713c1.1163,-0.9339 2.2211,-1.5628 3.1702,-2.717c0.9946,-1.2094 2.1878,-2.6011 1.9703,-4.2579c-0.019,-0.133 0.1368,-0.1653 0.2337,-0.1644c1.2283,0.0171 2.355,0.894 2.2676,2.2297c-0.0437,0.664 -0.2498,1.0326 -0.6061,1.5741c-0.189,0.2869 -1.2568,1.691 -0.4094,1.5257c0.247,-0.0494 0.5149,0.2983 0.1786,0.3648c-0.7505,0.1473 -1.3319,-0.1548 -0.9253,-0.9699c0.2916,-0.5805 0.6792,-1.1039 1.0174,-1.6568c0.2337,-0.3791 0.2394,-0.8104 0.2081,-1.2483c-0.0532,-0.7344 -1.2322,-1.9988 -1.3994,-0.7961c-0.2859,2.051 -2.3199,4.2911 -3.9472,5.4568c-1.2388,0.8873 -2.3323,1.462 -2.3437,3.1359c-0.0066,1.0289 0.2328,2.0197 -0.0418,3.0334c-0.0646,0.2299 -0.5719,0.0931 -0.5092,-0.1387zM279.1971,127.1882c0.7011,-0.4038 1.4516,-0.6061 2.2316,-0.8132c1.0925,-0.2898 2.1451,-0.7201 3.2338,-1.0251c1.9361,-0.5415 4.0109,-0.5928 5.9964,-0.3667c0.095,0.0105 0.2888,0.0789 0.2793,0.2071c-0.0589,0.8854 -2.1176,1.1894 -2.7294,1.3576c-0.9595,0.2622 -1.9256,0.494 -2.8861,0.7552c-0.6146,0.1682 -1.4459,0.3183 -1.938,0.76c-0.17,0.1549 -0.6108,-0.0978 -0.3914,-0.2964c0.6375,-0.5728 1.7404,-0.7315 2.5375,-0.9443c1.2663,-0.3391 2.5488,-0.6241 3.7905,-1.0421c0.1966,-0.0656 1.0089,-0.4608 0.9319,-0.4712c-1.3471,-0.1539 -2.7122,-0.0684 -4.0498,0.1282c-1.1524,0.1701 -2.2515,0.5529 -3.3488,0.9282c-1.0849,0.3714 -2.2648,0.5415 -3.267,1.1181c-0.1967,0.114 -0.6403,-0.152 -0.3905,-0.2954zM282.981,127.9282c2.2353,-0.2318 4.445,-0.6602 6.6899,-0.7951c1.0393,-0.0608 2.0567,-0.1653 2.9279,0.4921c0.0997,0.076 -0.3639,0.0228 -0.457,-0.0466c-1.0174,-0.7666 -3.5625,-0.1415 -4.6502,-0.0019c-1.3661,0.1748 -2.7227,0.4 -4.0907,0.5406c-0.1159,0.0123 -0.5434,-0.1758 -0.4199,-0.1891zM292.557,127.7363c-0.8085,0.4465 -1.8934,0.5567 -2.7721,0.7752c-1.8525,0.4598 -3.7012,0.931 -5.5081,1.5457c-0.1416,0.0475 -0.5064,-0.1587 -0.4807,-0.1691c1.3746,-0.4674 2.773,-0.856 4.179,-1.217c1.2816,-0.3287 2.9308,-0.456 4.1002,-1.1039c0.1254,-0.0665 0.5282,0.1435 0.4817,0.1691zM292.7831,127.5644c-0.001,1.1124 -1.4725,1.6406 -2.319,1.9883c-1.7603,0.7249 -3.5948,1.2464 -5.3789,1.9076c-0.1377,0.0504 -0.6013,-0.1577 -0.4094,-0.228c1.6245,-0.6013 3.2832,-1.1096 4.9039,-1.7233c0.9291,-0.3505 2.6942,-0.8721 2.6951,-2.0805c0,-0.133 0.5083,-0.0437 0.5083,0.1359zM279.2028,127.3839c1.2749,2.0292 -2.4491,3.4589 -3.8361,3.9045c-0.057,0.018 -0.2783,-0.0722 -0.2118,-0.095c1.3813,-0.4446 5.0492,-1.8611 3.7962,-3.8589c-0.0133,-0.02 0.2137,-0.0105 0.2517,0.0494zM280.9508,127.7563c1.6654,0.9576 3.2452,2.7996 2.6629,4.8355c-0.0143,0.0503 -0.2689,-0.02 -0.2556,-0.0675c0.5738,-2.0016 -0.9604,-3.8256 -2.5992,-4.7699c-0.1054,-0.0589 0.1501,-0.0219 0.1919,0.0019zM284.71,131.4337c2.0111,0.7895 5.1556,-0.6317 6.649,1.4345c0.0171,0.0219 0.039,0.058 0.0057,0.0808c-0.6925,0.4997 -1.5646,0.5472 -2.3883,0.6061c-1.4297,0.0997 -2.831,0.3277 -4.2455,0.5567c-3.0457,0.494 -5.7865,2.2401 -8.8787,2.3864c-0.1245,0.0066 -0.5881,-0.2185 -0.323,-0.2328c2.204,-0.1035 4.1306,-1.0982 6.1892,-1.7755c1.8801,-0.6175 4.01,-0.9225 5.9727,-1.1087c0.8483,-0.0807 1.6881,-0.0674 2.5213,-0.2755c0.7856,-0.1947 0.5443,-0.6365 -0.171,-0.9509c-0.5596,-0.2461 -1.2483,-0.2261 -1.8487,-0.2404c-1.2284,-0.0266 -2.4995,0.1254 -3.6689,-0.3325c-0.3354,-0.1301 -0.0209,-0.2289 0.1862,-0.1482z" fill="#010101"/><path d="M207.0513,148.4178c-0.4247,2.5479 1.0089,4.6446 3.3449,5.5917c1.6464,0.6688 4.3491,0.5064 3.9549,-1.88c-0.0371,-0.2223 0.4788,-0.1397 0.5111,0.0551c0.4227,2.5659 -2.4007,2.7711 -4.2161,2.2353c-2.7246,-0.8094 -4.5809,-3.2708 -4.104,-6.136c0.0342,-0.2024 0.5443,-0.077 0.5092,0.1339zM203.1392,154.9234c-0.4,1.7851 0.475,3.611 1.6967,4.8802c0.0826,0.0864 -0.2812,0.0408 -0.3458,-0.0257c-1.2436,-1.2891 -2.1375,-3.1378 -1.7319,-4.9552c0.02,-0.0883 0.4028,0.0057 0.381,0.1007zM232.2671,124.9842c2.9175,0.855 5.7114,0.6669 8.285,2.4804c0.227,0.1587 -0.286,0.1406 -0.4009,0.0589c-2.4206,-1.7052 -5.2051,-1.5181 -7.943,-2.3189c-0.2992,-0.0865 -0.2432,-0.3097 0.0589,-0.2204zM238.6834,133.5769c1.0165,2.1176 2.8766,3.7164 3.5578,6.004c0.4237,1.4241 0.1539,2.9849 -0.0171,4.4242c-0.2328,1.9712 -0.3563,3.8864 0.0893,5.8406c1.4658,6.4353 4.8773,12.14 6.897,18.3777c0.0494,0.152 -0.4541,0.0836 -0.5064,-0.0722c-0.9718,-3.0048 -2.279,-5.8681 -3.5444,-8.7571c-1.3661,-3.1179 -2.4909,-6.3241 -3.3497,-9.6206c-0.8674,-3.326 0.5918,-6.6196 0.0095,-9.9209c-0.4304,-2.4386 -2.5964,-4.1781 -3.6395,-6.3498c-0.0627,-0.1282 0.4323,-0.0769 0.5035,0.0741zM249.2151,168.2073c-0.0019,0.3458 -0.0057,0.6754 -0.0598,1.0136c-0.0713,0.4712 -0.5558,0.6536 -0.1416,1.0735c0.5149,0.5225 0.8921,1.4545 0.7676,2.1869c-0.1444,0.8607 -0.892,1.5172 -0.835,2.3741c0.0646,0.949 0.4161,1.7081 0.9443,2.4605c0.9775,1.3889 -3.8361,2.2439 -4.409,2.3607c-3.4209,0.6945 -7.0936,1.0697 -10.5782,0.7372c-2.3636,-0.2232 -4.6417,-0.9367 -6.8372,-1.8145c-1.2445,-0.4978 -2.4557,-1.0706 -3.667,-1.6425c-0.6878,-0.324 -1.3756,-0.6508 -2.0653,-0.97c-0.6289,-0.2945 -0.55,-0.0807 -1.0735,0.0779c-0.2128,0.0646 -0.5985,-0.2432 -0.2964,-0.3363c0.5558,-0.1681 0.5453,-0.4474 1.1068,-0.2498c1.0127,0.3553 1.9893,0.9243 2.9583,1.3813c2.4006,1.1295 4.8298,2.1755 7.4166,2.793c3.5169,0.8417 7.2656,0.513 10.8082,0.0123c0.6916,-0.0988 7.1592,-1.1162 5.9964,-2.4424c-0.7344,-0.836 -1.159,-2.5479 -0.5216,-3.515c0.4332,-0.6555 0.6052,-1.2768 0.4931,-2.053c-0.0988,-0.6944 -0.6498,-0.9718 -0.9225,-1.5238c-0.0294,-0.0608 -0.057,-0.1881 -0.038,-0.2536c0.1682,-0.628 0.4361,-1.0023 0.4399,-1.71c0.0009,-0.2622 0.5149,-0.1815 0.5139,0.0399zM218.209,151.2488c1.6369,2.0169 2.9032,3.8143 3.1369,6.5018c0.0912,1.0479 0.0979,2.0406 -0.7799,2.7436c-1.4934,1.1961 1.7413,3.2785 2.0235,4.3216c0.1026,0.38 -0.343,0.9642 -0.5121,1.2663c-0.5111,0.9177 -1.0393,1.8212 -1.5086,2.7617c-1.1219,2.2524 -2.3721,5.7152 0.3458,7.3397c0.2955,0.1767 0.0257,0.4759 -0.2318,0.323c-4.3082,-2.5764 -0.3619,-8.1368 1.2227,-11.1958c0.4959,-0.9547 -1.2588,-2.1574 -1.7699,-2.9326c-0.6992,-1.0659 -0.2669,-1.7499 0.4361,-2.5536c1.0136,-1.1609 -0.0741,-3.9986 -0.532,-5.1509c-0.5035,-1.2664 -1.4146,-2.2097 -2.2629,-3.2557c-0.2033,-0.2565 0.2764,-0.36 0.4322,-0.1691zM222.18,124.9633c1.3661,2.8623 4.0337,4.0204 6.992,4.6531c1.4193,0.304 2.5156,0.2061 3.7098,-0.6631c1.4012,-1.0194 1.0203,-2.2639 -0.552,-2.9013c-0.2479,-0.0998 -0.0209,-0.2309 0.1511,-0.1615c0.9034,0.3667 2.2467,1.1618 1.5399,2.3313c-0.6621,1.0972 -1.9845,1.7432 -3.2366,1.8411c-1.635,0.1282 -3.7316,-0.6973 -5.1946,-1.3633c-1.6882,-0.7666 -2.9697,-2.0615 -3.7649,-3.7287c-0.0807,-0.1653 0.3012,-0.1216 0.3553,-0.0076zM221.0144,123.3948c-3.5806,1.1362 -7.1507,2.8633 -10.0396,5.2944c-0.1701,0.1425 -0.6147,-0.1026 -0.3914,-0.2926c2.9098,-2.4491 6.5303,-4.1971 10.1374,-5.3419c0.2157,-0.0684 0.5985,0.2423 0.2936,0.3401zM240.3763,127.4038c2.8092,0.7847 4.5125,2.6011 6.404,4.6921c1.0592,1.1704 2.1441,2.413 3.4437,3.325c1.938,1.3604 4.2171,2.1859 6.4429,2.9355c0.343,0.1149 0.0209,0.2099 -0.1814,0.1406c-2.9754,-1.0004 -5.9299,-2.1717 -8.2213,-4.3795c-2.5318,-2.4358 -4.3567,-5.5271 -7.9363,-6.5303c-0.2993,-0.0836 -0.2508,-0.267 0.0484,-0.1834zM242.1091,144.9693c0.8949,2.756 4.4004,4.7624 6.7498,6.0743c2.6666,1.4915 7.3834,3.7734 10.2486,1.6036c0.1102,-0.0826 0.5472,0.1197 0.4797,0.171c-2.7008,2.0454 -7.0756,0.2109 -9.7099,-1.0402c-1.8962,-0.8978 -3.6898,-2.033 -5.3238,-3.3497c-1.1457,-0.9234 -2.4757,-2.1043 -2.9469,-3.5502c-0.0285,-0.0912 0.4617,-0.0342 0.5025,0.0912zM261.5471,138.9815c-1.5343,1.9133 -2.6781,4.4469 -1.2702,6.7497c1.1182,1.8259 4.1962,3.6034 5.8767,1.5324c0.1321,-0.1625 0.6185,0.0294 0.4684,0.2156c-1.5162,1.8696 -4.1981,0.97 -5.7219,-0.4398c-2.6562,-2.4605 -1.9123,-5.6658 0.1796,-8.2736c0.1301,-0.1624 0.6165,0.0285 0.4674,0.2157zM266.2847,146.5074c1.8715,2.5232 -1.8667,5.7646 -4.1781,6.2272c-3.2784,0.6536 -5.5708,-1.7907 -6.8352,-4.5514c-0.0627,-0.1387 0.436,-0.0846 0.5063,0.0693c1.312,2.869 3.6993,5.2792 7.0604,3.8542c1.8459,-0.7828 4.504,-3.5435 2.9792,-5.6012c-0.1311,-0.1739 0.3772,-0.1197 0.4674,0.0019zM255.0025,141.7469c-0.2403,-4.0118 6.6738,-7.7339 7.8575,-2.7008c0.056,0.2365 -0.4636,0.17 -0.514,-0.0447c-0.5206,-2.2116 -2.4966,-2.3978 -4.2693,-1.4449c-1.5361,0.8265 -2.6676,2.4605 -2.5612,4.2341c0.0181,0.2546 -0.4987,0.1739 -0.513,-0.0437zM221.1312,144.007c-0.3619,1.3518 -1.8411,2.2258 -3.097,2.6182c-0.0731,0.0218 -0.3011,-0.0884 -0.2023,-0.1197c1.2321,-0.3838 2.6875,-1.235 3.0438,-2.566c0.0256,-0.0855 0.2774,-0.018 0.2555,0.0675zM218.5292,146.533c0.0874,2.2173 -0.4142,4.3007 -0.7895,6.4705c-0.0266,0.1567 -0.5377,0.0361 -0.5082,-0.1378c0.3733,-2.146 0.8778,-4.2085 0.7913,-6.403c-0.0076,-0.1928 0.5007,-0.0817 0.5064,0.0703zM212.072,158.6845c2.0473,0.6726 4.0014,-0.989 5.0949,-2.5584c1.4069,-2.0216 -0.285,-4.4422 -2.2753,-5.281c-0.3296,-0.1387 -0.0256,-0.2689 0.1919,-0.1786c1.9827,0.8341 4.0689,3.2471 2.699,5.4226c-1.197,1.9009 -3.4428,3.5815 -5.7713,2.8167c-0.2926,-0.0959 -0.2403,-0.3201 0.0608,-0.2213zM208.7746,147.2731c-2.7208,-0.4978 -5.245,1.6653 -6.1437,4.1011c-0.988,2.6771 1.2702,4.8792 3.8247,5.1072c0.1539,0.0152 0.5482,0.2727 0.2109,0.2423c-2.5042,-0.2242 -4.844,-1.7167 -4.7471,-4.4812c0.1111,-3.1739 3.7952,-5.7427 6.7706,-5.2003c0.2223,0.0409 0.4389,0.2945 0.0846,0.2309zM211.445,128.4118c-1.9712,1.0355 -3.6223,2.4443 -4.0726,4.6987c-0.4218,2.0966 -0.3838,4.3595 -0.6118,6.4866c-0.2157,2.0149 -0.019,4.0574 -1.1714,5.8482c-0.4864,0.7562 -2.8481,3.0181 -1.9199,3.895c0.2118,0.1995 -0.2926,0.1757 -0.4038,0.0693c-0.8873,-0.8398 0.4427,-2.2999 0.9776,-2.9839c1.6292,-2.0786 1.7812,-3.9606 1.9665,-6.4961c0.0931,-1.2664 0.2954,-2.5232 0.3876,-3.7915c0.0893,-1.1932 0.1064,-2.3712 0.342,-3.5482c0.4189,-2.0872 2.317,-3.4789 4.0964,-4.4137c0.1377,-0.0722 0.6089,0.1301 0.4094,0.2356zM204.7076,159.7504c1.7936,0.8787 3.4647,1.6045 5.5214,1.4022c0.0808,-0.0076 0.437,0.1349 0.248,0.1539c-2.2297,0.2213 -4.0242,-0.5444 -5.9888,-1.5067c-0.228,-0.1121 0.1282,-0.0922 0.2194,-0.0494zM210.21,161.0927c1.2825,-0.2707 2.7911,-1.0431 3.3602,-2.2838c0.0389,-0.0845 0.4056,0.0475 0.38,0.1017c-0.5862,1.2749 -2.1128,2.0434 -3.4267,2.3208c-0.0836,0.019 -0.4104,-0.1187 -0.3135,-0.1387z" fill="#010101"/><path d="M221.5283,112.8527c-0.9899,3.1492 -4.2702,0.6745 -5.4957,-1.027c-1.3908,-1.9266 -0.4304,-7.0224 2.603,-5.1661c0.2175,0.1349 0.018,0.361 -0.1758,0.2442c-1.4402,-0.8826 -2.2268,0.3087 -2.621,1.4877c-0.3781,1.1343 -0.0941,2.3199 0.5139,3.306c0.438,0.7125 1.121,1.2435 1.7965,1.7157c0.3933,0.2755 0.8018,0.4921 1.254,0.6507c0.9994,0.3496 1.4943,-0.5234 1.7423,-1.3138c0.0598,-0.1872 0.4408,-0.0827 0.3828,0.1026zM217.2343,111.6519c-0.0503,0.1007 1.0593,1.1628 2.3275,0.7353c0.5624,-0.1378 1.1695,-0.2888 1.5571,-0.0979c0.3591,0.2651 0.0817,0.6546 0.1444,0.6261c-0.0713,0.0247 0.2517,-0.3373 -0.1207,-0.6631c-0.4104,-0.2318 -1.0374,-0.1045 -1.6102,-0.0057c-1.2341,0.3106 -2.1071,-0.6897 -2.0596,-0.7524c-0.0694,-0.1254 -0.1862,-0.2033 -0.2594,-0.1758c-0.0722,0.0295 -0.0655,0.1786 0.0209,0.3335zM220.4643,109.8953c-0.1415,0.0399 -0.8379,-1.1191 -2.0244,-1.805c-0.6356,-0.2232 -1.3585,-0.1187 -1.7281,0.2157c-0.3629,0.3629 -0.2289,0.7505 -0.2679,0.7315c0.0361,0.0209 -0.0684,-0.3743 0.2964,-0.6964c0.3658,-0.2964 1.0735,-0.3562 1.6445,-0.1159c1.044,0.6726 1.7366,1.9076 1.8886,1.8848c0.1349,0.1235 0.2812,0.172 0.3287,0.1083c0.0456,-0.0627 -0.0152,-0.208 -0.1378,-0.323zM237.7914,113.8017c-0.3382,0.1349 -0.627,0.381 -0.9405,0.5624c-0.2698,0.1549 -0.6527,0.134 -0.9396,0.0513c-0.6583,-0.189 -0.7676,-0.9034 -0.4161,-1.4164c0.0494,-0.0703 0.2955,0.0142 0.2356,0.0988c-0.3505,0.5111 -0.1995,1.2283 0.5292,1.2312c0.5082,0.0009 0.8806,-0.4731 1.3281,-0.6517c0.0769,-0.0285 0.3087,0.0826 0.2033,0.1244zM238.2065,113.9034c0.5121,-0.0314 0.9928,-0.1758 1.4355,-0.4361c1.0706,-0.6336 0.1377,-1.5523 -0.5966,-1.9332c-0.836,-0.4361 -1.1666,-1.0127 -1.4811,-1.8848c-0.0351,-0.0998 0.2214,-0.0675 0.2556,0.0256c0.1586,0.438 0.3657,0.9529 0.6688,1.2958c0.2755,0.3107 0.7201,0.4655 1.0801,0.6631c0.4541,0.2508 0.7838,0.5881 0.8265,1.121c0.0751,0.9301 -1.4297,1.2683 -2.0928,1.3101c-0.1102,0.0057 -0.2689,-0.1511 -0.096,-0.1615zM239.9108,106.4782c-0.2878,-0.4741 -0.1662,-1.2084 -0.1339,-1.73c0.076,-1.2397 0.2052,-2.374 -0.5681,-3.4485c-0.1216,-0.1691 0.3828,-0.1083 0.4674,0.0095c0.5899,0.8208 0.7514,1.7309 0.6849,2.7237c-0.0446,0.6887 -0.36,1.8363 0.0171,2.4548c0.1131,0.1833 -0.3914,0.114 -0.4674,-0.0095zM240.3364,106.5076c0.2451,1.0783 1.1495,1.8592 1.5979,2.8538c0.4769,1.0593 0.6897,2.1964 0.609,3.3516c-0.1929,2.7911 -1.6464,5.2117 -2.622,7.7625c-0.0494,0.1339 -0.4266,0.0199 -0.3791,-0.1017c0.8892,-2.3265 2.0758,-4.4707 2.5175,-6.953c0.2594,-1.4516 0.0333,-2.7541 -0.5054,-4.1059c-0.4132,-1.0365 -1.3461,-1.7499 -1.5988,-2.8548c-0.0333,-0.1415 0.3505,-0.0817 0.3809,0.0475zM240.0761,120.0423c-0.2926,0.8065 -0.512,1.8838 -1.102,2.5346c-0.6298,0.6916 -1.4972,0.8673 -2.3902,0.9823c-2.2657,0.2926 -4.5096,-0.153 -6.6167,-0.9795c-2.0919,-0.8208 -4.0394,-2.1821 -5.8283,-3.5292c-1.7014,-1.2816 -3.1046,-2.9222 -3.3744,-5.0977c-0.0142,-0.1169 0.3648,-0.0409 0.3781,0.0598c0.4503,3.6328 4.1164,5.7893 6.9987,7.4927c2.2857,1.3518 4.8877,2.0719 7.5439,1.9332c0.9624,-0.0484 1.9466,-0.1748 2.7284,-0.779c0.7306,-0.5633 0.9833,-1.899 1.2806,-2.7189c0.0399,-0.1064 0.4161,0.0086 0.3819,0.1017zM232.5911,123.5164c-0.1701,1.197 -0.3962,2.5346 0.5434,3.4713c0.0978,0.0979 -0.3762,0.0342 -0.457,-0.0475c-0.9794,-0.9766 -0.7723,-2.3028 -0.5956,-3.5606c0.0142,-0.0864 0.5272,0.0171 0.5092,0.1368zM239.3171,101.8023c-0.874,-3.382 -2.7151,-6.1779 -6.3033,-6.9455c-0.3211,-0.0684 -0.2175,-0.4417 0.0988,-0.3733c3.8124,0.8151 5.7884,3.743 6.7203,7.3511c0.0694,0.2593 -0.455,0.2052 -0.5158,-0.0323zM237.0171,107.8728c-0.8265,-1.046 -0.2232,-3.5967 0.7534,-4.3814c0.0332,-0.0266 0.1501,0.0228 0.1178,0.0484c-0.9548,0.7686 -1.5542,3.3203 -0.7534,4.3339c0.0333,0.0409 -0.095,0.0295 -0.1178,-0.0009zM221.4077,116.058c-0.0067,-0.0181 -0.0133,-0.0361 -0.02,-0.0551c-0.0266,-0.0694 0.3382,-0.0304 0.3762,0.0665c0.7087,1.8933 1.2113,5.3399 -0.2527,6.9796c-0.0617,0.0703 -0.4161,-0.0646 -0.3581,-0.1301c1.4421,-1.615 0.9186,-5.0901 0.2346,-6.916c-0.0247,-0.0694 0.3401,-0.0304 0.3762,0.0665c0.0076,0.019 0.0152,0.037 0.02,0.056c0.0266,0.0684 -0.3401,0.0295 -0.3762,-0.0674z" fill="#010101"/><path d="M240.2642,115.9563c0.2964,-0.5909 0.171,-1.1637 -0.7989,-0.9661c-0.4266,0.0864 -0.8398,0.3163 -1.2141,0.5291c-0.8303,0.4722 -1.5352,1.1704 -2.2173,1.8278c-0.0447,0.0428 -0.2717,-0.0541 -0.2404,-0.0845c0.9871,-0.95 2.338,-2.3646 3.8228,-2.4225c0.8303,-0.0314 1.3329,0.3211 0.9006,1.1846c-0.0285,0.0589 -0.2707,-0.0342 -0.2527,-0.0684zM239.3912,117.7898c0.3144,0.0551 0.5092,0.5567 0.5975,0.8161c0.1188,0.3439 -0.0807,0.7372 -0.3486,0.95c-1.0764,0.8521 -2.6904,0.7942 -3.9292,0.3866c-0.153,-0.0513 -0.1083,-0.2299 0.0475,-0.1786c1.0203,0.3363 2.0976,0.3696 3.1103,-0.0133c0.3705,-0.1396 0.7163,-0.3914 0.8635,-0.7685c0.0808,-0.2033 -0.1121,-0.969 -0.3904,-1.0165c-0.1606,-0.0266 -0.1083,-0.2024 0.0494,-0.1758zM240.4922,116.0532c-1.4364,1.0042 -3.1758,1.4545 -4.7576,2.167c-0.6764,0.304 1.0925,0.3135 0.9139,0.3163c0.6622,-0.0123 1.2854,-0.2042 1.9314,-0.3211c1.0241,-0.1862 0.3515,-1.311 0.9253,-1.8411c0.0655,-0.0646 0.3059,0.0333 0.2356,0.0998c-0.4598,0.4265 -0.0665,1.0374 -0.4019,1.5133c-0.2793,0.3971 -0.7248,0.3838 -1.1704,0.495c-0.8569,0.2118 -2.2116,0.5434 -2.8623,-0.1929c-0.0238,-0.0266 -0.0418,-0.0655 0.0019,-0.0855c1.6416,-0.7894 3.4751,-1.2226 4.9827,-2.2762c0.0684,-0.0503 0.3031,0.0542 0.2014,0.1254z" fill="#010101"/><path d="M240.212,104.4955c0.1729,0.3382 -0.1644,0.5311 -0.4522,0.608c-0.0589,0.0162 -0.1264,0 -0.1786,-0.0266c-0.0238,-0.0142 -0.0865,-0.0674 -0.0266,-0.0845c0.2584,-0.0675 0.5586,-0.2261 0.4037,-0.5339c-0.0285,-0.0599 0.2176,-0.0352 0.2537,0.037zM230.8231,106.6482c-0.8075,-0.0684 -1.5979,-0.1985 -2.3588,-0.4826c-0.1672,-0.0608 -0.0162,-0.1482 0.0988,-0.1054c0.7182,0.2679 1.4649,0.3828 2.2249,0.4474c0.1282,0.0095 0.2128,0.1568 0.0351,0.1406zM229.1806,106.7803c-0.5406,-0.0323 -1.0412,-0.0741 -1.521,-0.342c-0.1491,-0.0846 0.0703,-0.1406 0.1615,-0.0893c0.4133,0.2318 0.8664,0.2498 1.3272,0.2764c0.132,0.0067 0.2061,0.1653 0.0323,0.1549zM228.4405,107.0282c-0.5111,0.172 -1.1143,0.0399 -1.5846,-0.1985c-0.1567,-0.0789 -0.0152,-0.1929 0.1064,-0.1311c0.3971,0.2014 0.894,0.3173 1.3262,0.1738c0.0998,-0.0342 0.3012,0.1064 0.152,0.1558zM236.9915,106.8116c0.0247,-0.9509 0.5605,-1.7641 1.539,-1.9199c0.5937,-0.096 1.3632,0.1311 1.5836,0.741c0.0257,0.0703 -0.341,0.0304 -0.3762,-0.0665c-0.2375,-0.6574 -0.9509,-0.6099 -1.4782,-0.3344c-0.6222,0.3277 -0.8692,1.0174 -0.8863,1.6824c-0.001,0.0656 -0.3848,0.0057 -0.3819,-0.1026zM237.2195,106.9598c1.158,0.5748 2.0767,-0.1776 2.7132,-1.0573c0.0237,-0.0323 0.1387,0.018 0.1282,0.0342c-0.3429,0.4731 -0.8417,1.0098 -1.4031,1.2198c-0.5282,0.1976 -1.0241,0.0655 -1.5143,-0.1767c-0.0741,-0.038 0.0446,-0.0361 0.076,-0.02zM232.6965,107.5621c-0.0522,-1.0003 -1.9684,-0.912 -2.6362,-0.8597c-1.3547,0.1045 -2.4605,1.0079 -3.5445,1.7328c-0.1463,0.0997 -0.4769,-0.1007 -0.2935,-0.2242c1.387,-0.9282 2.6419,-1.8136 4.3671,-1.8174c0.8037,-0.0009 2.4368,0.1131 2.4947,1.1961c0.0095,0.2033 -0.38,0.151 -0.3876,-0.0276zM233.0528,107.6106c-0.1321,1.1704 -1.8316,1.3822 -2.7531,1.52c-1.6407,0.2441 -2.5337,-0.1093 -3.9843,-0.7372c-0.1606,-0.0694 -0.0181,-0.19 0.1083,-0.1359c1.1086,0.4788 1.8563,0.8598 3.1388,0.7724c0.9766,-0.0646 3.0989,-0.2565 3.2347,-1.4877c0.0114,-0.1074 0.267,-0.0456 0.2556,0.0684zM239.6857,104.3777c0.0598,0.2964 -0.1824,0.475 -0.4503,0.5187c-0.0342,0.0057 -0.1492,-0.0494 -0.0798,-0.0598c0.2432,-0.0409 0.4579,-0.2109 0.4047,-0.4788c-0.0076,-0.039 0.1178,-0.0171 0.1254,0.0199zM239.1176,104.3739c0.0617,0.3078 -0.1957,0.495 -0.4703,0.5396c-0.0627,0.0105 -0.1292,-0.0788 -0.0437,-0.0931c0.2356,-0.0399 0.438,-0.1985 0.3848,-0.456c-0.0133,-0.0636 0.1178,-0.0484 0.1292,0.0095zM229.1967,106.6634c0.4579,0.2774 0.8284,0.6631 0.9177,1.2075c0.096,0.5814 -0.3676,1.0298 -0.8322,1.2749c-0.0978,0.0522 -0.322,-0.0808 -0.1957,-0.1463c1.0707,-0.5643 0.9054,-1.6378 -0.0589,-2.2202c-0.1463,-0.0902 0.0665,-0.1795 0.1691,-0.1159zM238.4013,105.1273c0.8388,0.4104 0.8616,1.6131 0.0427,2.0681c-0.0703,0.039 -0.2869,-0.0655 -0.2375,-0.0931c0.7125,-0.3952 0.8398,-1.5333 0.0428,-1.9218c-0.153,-0.076 0.0807,-0.0874 0.152,-0.0532zM226.8512,108.2119c0.0066,0.077 0.0199,0.1273 0.0636,0.1948c-0.0826,-0.0133 -0.1634,-0.0228 -0.2451,-0.0352c0.02,-0.0456 0.0323,-0.094 0.0494,-0.1415c0.0247,-0.0817 0.2546,-0.0124 0.2546,0.0684c0,0.0389 0,0.0788 0,0.1187c-0.0845,-0.0218 -0.17,-0.0456 -0.2546,-0.0684c0,-0.1026 0.0019,-0.2061 0.0209,-0.3078c0.0181,-0.075 0.2489,-0.0152 0.2556,0.0523c0.0095,0.0997 0.0437,0.19 0.0703,0.2859c-0.0855,-0.019 -0.171,-0.0351 -0.2546,-0.0532c0.0494,-0.2318 0.1311,-0.4379 0.2698,-0.6308c0.0437,-0.0598 0.2869,0.0171 0.2375,0.096c-0.1748,0.2755 -0.1824,0.5481 0.0199,0.8103c0.0741,0.096 -0.1833,0.0361 -0.2175,0.0152c-0.1634,-0.1102 -0.3515,-0.1738 -0.4988,-0.3087c-0.1035,-0.0969 0.1463,-0.0798 0.2005,-0.0304c0.1453,0.133 0.3363,0.1995 0.4987,0.3087c-0.0731,0.0048 -0.1463,0.0095 -0.2175,0.0152c-0.228,-0.2935 -0.2204,-0.5928 -0.0247,-0.9015c0.0788,0.0332 0.1586,0.0636 0.2375,0.0959c-0.134,0.1853 -0.2062,0.3848 -0.2556,0.6042c-0.0171,0.0836 -0.2365,0.0095 -0.2536,-0.0522c-0.0276,-0.0969 -0.0608,-0.1862 -0.0713,-0.285c0.0846,0.0171 0.171,0.0342 0.2556,0.0522c-0.0209,0.1026 -0.0238,0.2043 -0.0238,0.3088c0,0.0674 -0.2555,0.0228 -0.2555,-0.0684c0,-0.0399 0,-0.0789 0,-0.1188c0.0855,0.0219 0.171,0.0447 0.2555,0.0684c-0.0152,0.0466 -0.0275,0.096 -0.0475,0.1406c-0.0323,0.0741 -0.2156,0.0181 -0.2441,-0.0351c-0.0456,-0.076 -0.0732,-0.1406 -0.0808,-0.229c-0.0038,-0.0978 0.2499,-0.0456 0.2556,0.0304z" fill="#010101"/><path d="M232.5911,104.2856c-0.912,0.0047 -1.8022,-0.1625 -2.7085,-0.2375c-1.2787,-0.1064 -2.4605,0.7837 -3.5036,1.3965c-0.3771,0.2232 -1.2749,-0.2945 -0.7847,-0.5805c1.007,-0.5909 1.9694,-1.2036 3.1179,-1.4725c1.2312,-0.2897 2.5403,0.1672 3.7848,0.1606c0.5786,-0.0038 0.7847,0.7286 0.0941,0.7334zM237.3743,103.8077c0.2594,-0.9661 1.368,-1.4316 2.1166,-1.9551c0.1378,-0.0959 0.5909,0.1074 0.475,0.1881c-0.7267,0.5083 -1.8325,0.969 -2.0833,1.9029c-0.0418,0.1548 -0.5501,0.0171 -0.5083,-0.1359z" fill="#010101"/><path d="M220.3323,105.7049c-0.8066,-1.4877 -2.0254,-2.4634 -1.8867,-4.3406c0.1339,-1.8487 1.6957,-2.9079 3.1112,-3.8817c3.1037,-2.1356 6.5408,-2.7065 10.1584,-1.88c0.1577,0.0361 0.113,0.1947 -0.0428,0.1586c-3.6119,-0.8246 -6.8086,-0.1586 -9.917,1.8592c-1.5324,0.9956 -3.0989,2.1802 -3.0467,4.161c0.0437,1.6416 1.1457,2.5754 1.8649,3.9035c0.0646,0.1197 -0.1919,0.1102 -0.2413,0.02zM232.0287,95.8401c-0.6859,-0.1074 -1.1068,-0.514 -1.7452,-0.8075c-0.9671,-0.4427 -1.9627,-0.7999 -2.9991,-1.0317c-2.0264,-0.4541 -4.1411,0.0522 -6.1323,0.455c-0.1263,0.0266 -0.2574,-0.1539 -0.0864,-0.1871c1.8401,-0.3734 3.686,-0.7638 5.5708,-0.5605c0.8521,0.094 1.6815,0.3562 2.4852,0.6479c0.8892,0.3192 1.9693,1.1523 2.8851,1.2958c0.1406,0.0199 0.1929,0.2137 0.0219,0.1881zM232.0182,95.7109c0.2898,-0.646 0.7838,-1.1581 1.0659,-1.8079c0.7087,-1.634 -1.576,-2.2895 -2.6837,-2.6106c-1.0669,-0.3078 -2.1271,-0.6441 -3.2262,-0.8227c-1.1989,-0.1957 -2.4178,0.0209 -3.5958,0.2413c-0.0674,0.0133 -0.2964,-0.0988 -0.1586,-0.1254c2.7873,-0.5225 4.92,-0.0199 7.6057,0.7733c0.855,0.2527 1.6862,0.5852 2.2144,1.3357c0.741,1.0536 -0.5785,2.2164 -0.9661,3.0837c-0.0371,0.0789 -0.2831,-0.0028 -0.2556,-0.0674zM235.9294,96.0206c1.0079,-2.2069 -0.5206,-4.4327 -2.5137,-5.3884c-2.0568,-0.9861 -4.0385,-1.3443 -6.3118,-1.1761c-0.2261,0.0171 -0.5292,-0.3135 -0.1824,-0.3382c2.6704,-0.1976 5.0834,0.3144 7.4394,1.6226c1.8373,1.0212 2.9764,3.4447 2.0777,5.4178c-0.0931,0.2052 -0.5966,0.0542 -0.5092,-0.1377zM220.5574,105.6612c0.798,0.8854 0.6755,2.1669 0.6698,3.2746c0,0.0637 -0.0599,0.077 -0.115,0.076c-1.3537,-0.0114 -1.424,-1.842 -2.5536,-2.2021c-0.152,-0.0484 -0.1111,-0.2109 0.0437,-0.1615c0.8142,0.2603 1.1543,1.1495 1.6625,1.7613c0.0665,0.0817 0.7049,0.6299 0.7068,0.3563c0.0019,-0.3363 0.0105,-0.6707 0.0019,-1.007c-0.0161,-0.7211 -0.1273,-1.4773 -0.6251,-2.0311c-0.1073,-0.1178 0.1387,-0.1454 0.209,-0.0665zM219.6188,86.702c-3.571,0.3164 -6.9863,1.7509 -9.8676,3.858c-2.737,2.0045 -4.3111,4.9998 -5.5214,8.0826c-0.6118,1.5561 -1.0802,3.1549 -1.369,4.8013c-0.1577,0.8949 -0.2061,1.8031 -0.2451,2.7094c-0.0228,0.5386 -0.152,1.8525 0.8493,1.33c1.1581,-0.6023 1.5286,-2.6971 1.939,-3.82c0.5073,-1.3879 1.1362,-2.8281 2.0634,-3.9871c0.1349,-0.1663 0.6194,0.0256 0.4674,0.2175c-1.2502,1.5628 -1.8829,3.5454 -2.5536,5.4065c-0.3183,0.8835 -0.97,2.6923 -2.1641,2.7208c-0.8702,0.0209 -1.0716,-0.6346 -1.1172,-1.4089c-0.1083,-1.8316 0.2679,-3.7449 0.7429,-5.5014c1.0345,-3.8257 2.83,-7.6523 5.8501,-10.2961c2.9013,-2.5375 6.9274,-4.1192 10.7454,-4.4555c0.2309,-0.0219 0.5254,0.3144 0.1805,0.3429zM213.2937,110.2592c-0.6754,1.5608 -1.9579,5.4406 -4.2607,4.6958c-1.2008,-0.3876 -1.0764,-2.9925 -1.0137,-3.9292c0.1188,-1.7765 0.8531,-3.3364 2.0777,-4.5723c0.075,-0.076 0.4275,0.0636 0.3581,0.1358c-1.9161,1.9371 -2.488,4.789 -1.7651,7.4053c0.608,2.1973 2.8073,-0.8427 3.2604,-1.5457c0.4332,-0.6745 0.6498,-1.5618 0.9662,-2.2914c0.0399,-0.1054 0.4104,0.02 0.3771,0.1017zM206.9316,101.4831c-0.8275,1.5789 -1.2284,3.6622 -1.5381,5.4017c-0.1748,0.9785 -0.2318,1.9855 -0.0589,2.9668c0.1786,1.0137 1.2075,1.5742 2.033,0.7847c0.2917,-0.2793 0.5007,-0.6659 0.7258,-0.9984c0.0789,-0.1178 0.4484,0.0142 0.3525,0.1548c-0.4342,0.6432 -1.0279,1.6815 -1.9589,1.6055c-0.8161,-0.0646 -1.2075,-0.5586 -1.463,-1.3091c-0.4484,-1.3129 -0.0988,-2.963 0.1738,-4.2617c0.3031,-1.4411 0.6679,-3.1369 1.3528,-4.446c0.0713,-0.1406 0.4427,-0.0209 0.381,0.1017zM220.1993,115.4652c-0.6717,1.5238 -1.4554,2.9953 -2.4852,4.3073c-0.4418,0.5633 -1.1666,1.1229 -1.9057,0.8065c-0.685,-0.2945 -0.4351,-1.4468 -0.4389,-2.0206c-0.0086,-0.9785 0.417,-1.9152 0.7543,-2.813c0.0646,-0.1719 0.4427,-0.0636 0.3809,0.1017c-0.2688,0.7144 -0.57,1.4392 -0.7106,2.1926c-0.094,0.4778 -0.0304,0.9918 -0.0589,1.4763c-0.0389,0.6973 0.5729,0.9699 1.1296,0.5918c0.4341,-0.2964 0.7457,-0.8122 1.0431,-1.2312c0.7723,-1.0868 1.3746,-2.2961 1.9085,-3.5121c0.076,-0.1691 0.4541,-0.0589 0.3829,0.1007zM217.4281,113.9357c-0.7932,1.4022 -1.539,2.811 -2.5042,4.1068c-0.5728,0.7657 -1.348,1.6673 -2.3778,1.2293c-1.0811,-0.4588 -1.0137,-3.0846 -1.0051,-3.9738c0.0209,-1.7395 0.6992,-3.82 1.3461,-5.4283c0.0599,-0.1473 0.4361,-0.0361 0.381,0.1007c-1.0346,2.5735 -1.6796,5.4083 -1.0099,8.1386c0.5814,2.3684 2.661,-0.683 3.0638,-1.2863c0.6488,-0.9709 1.177,-2.0282 1.7518,-3.0447c0.0731,-0.1216 0.4417,0.0057 0.3543,0.1577zM219.5438,116.9728c-0.2166,1.084 -0.1881,2.2477 0.0646,3.326c0.0893,0.3771 0.2346,0.7524 0.4731,1.0621c0.5491,0.7125 1.4316,-0.589 1.6777,-0.9396c0.0712,-0.1026 0.4218,0.0437 0.3819,0.1017c-0.5567,0.798 -1.521,1.7898 -2.4073,0.8198c-0.3971,-0.4351 -0.5282,-1.121 -0.6128,-1.6815c-0.1396,-0.9243 -0.1406,-1.8762 0.0418,-2.7911c0.0181,-0.0969 0.4009,-0.0047 0.381,0.1026z" fill="#010101"/><path d="M230.7006,89.6081c-1.4478,-2.0349 -4.7652,-2.1128 -7.0063,-1.6445c-2.5536,0.533 -4.8184,2.2629 -6.4134,4.2712c-1.5514,1.9561 -2.1594,4.4878 -2.1936,6.9398c-0.0294,2.3009 0.6213,5.605 2.4178,7.2228c0.0617,0.0551 -0.1834,0.0314 -0.2318,-0.0133c-2.0558,-1.8496 -2.5308,-5.4606 -2.4178,-8.0674c0.1378,-3.1397 1.5685,-5.9004 3.8912,-7.9695c1.9589,-1.7433 4.4546,-2.7265 7.068,-2.7028c1.805,0.0181 4.0014,0.4104 5.1167,1.977c0.057,0.076 -0.1928,0.0408 -0.2308,-0.0133zM230.9039,89.4836c-2.1033,-2.8481 -5.548,-3.4266 -8.8768,-3.1502c-3.5027,0.2907 -6.5047,1.5941 -8.8274,4.3159c-4.2931,5.0274 -2.6885,13.1214 2.3626,16.9774c0.1368,0.1045 -0.075,0.1568 -0.1615,0.0903c-5.7769,-4.409 -6.65,-13.2763 -1.2977,-18.3721c4.1791,-3.9785 13.2858,-4.9599 17.0411,0.1254c0.0722,0.0988 -0.1843,0.0874 -0.2403,0.0133z" fill="#010101"/><path d="M233.2656,106.0288c0.4769,0.9358 0.7989,1.8402 0.8759,2.8937c0.0028,0.0418 -0.0124,0.0884 -0.0561,0.1045c-2.1118,0.8408 -4.3225,1.2645 -6.5692,1.5552c-0.4684,0.0598 -1.1676,0.1814 -1.5666,-0.1824c-0.6973,-0.6365 -0.5985,-1.6188 -0.9234,-2.4501c-0.0142,-0.0399 0.0219,-0.0902 0.0561,-0.1054c2.3797,-1.0792 5.262,-1.634 7.8508,-1.9589c0.2166,-0.0276 0.531,0.2774 0.1881,0.3201c-1.3984,0.1777 -2.812,0.5615 -4.1952,0.8398c-0.7562,0.152 -1.4991,0.3477 -2.2354,0.5776c-0.7619,0.2413 -1.1029,0.3439 -0.9234,1.1343c0.1359,0.5985 0.0741,1.6131 1.1533,1.5552c1.5628,-0.0836 3.1683,-0.4551 4.6807,-0.8503c0.5548,-0.1434 2.0558,-0.4018 1.9855,-1.0944c-0.0836,-0.8255 -0.4285,-1.5789 -0.7999,-2.3104c-0.1197,-0.2356 0.3923,-0.1976 0.4788,-0.0285zM236.5925,105.6308c1.0526,-1.0194 2.83,-1.5485 4.2645,-1.6397c0.2223,-0.0152 0.5301,0.3116 0.1843,0.3344c-1.3262,0.0845 -3.0058,0.5747 -3.9805,1.52c-0.1482,0.1425 -0.6298,-0.058 -0.4683,-0.2147zM241.2019,104.1963c0.3638,0.8616 0.2289,1.8401 0.2213,2.7493c-0.0009,0.1178 -0.5101,0.0323 -0.5082,-0.1378c0.0066,-0.893 0.1387,-1.8439 -0.2176,-2.6904c-0.0513,-0.1206 0.4437,-0.0646 0.5045,0.0789zM241.3729,106.9931c-1.2854,0.5339 -2.6334,0.7923 -3.9492,1.2274c-0.1282,0.0427 -0.4047,0.0009 -0.455,-0.152c-0.2679,-0.7971 -0.4921,-1.5552 -0.4855,-2.4007c0.0019,-0.1406 0.5102,-0.0494 0.5083,0.1378c-0.0067,0.8293 0.2223,1.5589 0.4826,2.3351c-0.153,-0.0513 -0.304,-0.1007 -0.456,-0.152c1.3129,-0.4351 2.6638,-0.6945 3.9472,-1.2284c0.1406,-0.0589 0.6061,0.1492 0.4076,0.2328zM236.5288,106.9038c-0.2223,-0.6916 -1.1913,-0.1273 -1.5789,0.1311c-0.417,0.2755 -0.8227,0.6906 -0.8873,1.2046c-0.018,0.1539 -0.5291,0.0418 -0.5073,-0.1368c0.1463,-1.2027 2.9469,-2.7712 3.4789,-1.1286c0.0542,0.1586 -0.4522,0.0883 -0.5054,-0.0703zM218.2717,106.2312c1.0564,-0.3031 1.9409,-0.0247 2.8757,0.4987c1.2844,0.7211 2.4567,1.0279 3.9206,1.14c0.5149,0.039 0.8313,0.6536 0.1283,0.5985c-0.836,-0.0627 -1.6074,-0.2109 -2.4235,-0.3895c-1.253,-0.2736 -2.5992,-1.6397 -3.8855,-1.2701c-0.3448,0.1007 -1.1998,-0.4095 -0.6156,-0.5776z" fill="#010101"/></g></g></svg>